<svg width="1898" height="375" viewBox="0 0 1898 375" fill="none" xmlns="http://www.w3.org/2000/svg">
<path opacity="0.75" d="M0.509705 220.428C0.509705 220.428 157.604 241.973 282.119 264.924C406.912 287.926 414.521 287.626 611.421 291.895C816.61 296.377 895.776 269.831 969.332 249.86C1042.89 229.89 1165.79 180.378 1215.18 156.79C1264.57 133.201 1334.86 106.003 1428.8 77.6988C1521.79 49.6729 1665.11 22.3646 1781.12 11.226L1897.13 0.0727539V374.333H0.509705V220.428Z" fill="url(#paint0_linear_2_92)"/>
<path opacity="0.75" d="M0.509705 298.977C0.509705 298.977 64.5833 301.518 149.322 292.086C253.494 280.493 337.845 244.17 373.47 233.024C409.095 221.878 523.548 175.098 676.219 175.098C827.177 175.098 1114.26 237.975 1235.67 200.949C1366.62 161.015 1475.13 107.014 1628.5 77.4791C1781.87 47.9446 1796.56 46.8974 1846.97 43.06L1897.39 39.2227V373.234H0.509705V298.977Z" fill="url(#paint1_linear_2_92)"/>
<defs>
<linearGradient id="paint0_linear_2_92" x1="251.942" y1="-215.156" x2="1741.12" y2="644.565" gradientUnits="userSpaceOnUse">
<stop stop-color="#F78DF7"/>
<stop offset="0.04" stop-color="#F87CF8" stop-opacity="0.96"/>
<stop offset="0.1" stop-color="#F869F8" stop-opacity="0.92"/>
<stop offset="0.16" stop-color="#F85BF8" stop-opacity="0.89"/>
<stop offset="0.25" stop-color="#F950F9" stop-opacity="0.87"/>
<stop offset="0.37" stop-color="#F94BF9" stop-opacity="0.85"/>
<stop offset="0.69" stop-color="#F949F9" stop-opacity="0.85"/>
<stop offset="1" stop-color="#F78DF7" stop-opacity="0.85"/>
</linearGradient>
<linearGradient id="paint1_linear_2_92" x1="521.088" y1="-221.667" x2="1506.74" y2="763.918" gradientUnits="userSpaceOnUse">
<stop stop-color="#FAB7E7"/>
<stop offset="0.14" stop-color="#F457C8"/>
<stop offset="0.99" stop-color="#D80E9F"/>
</linearGradient>
</defs>
</svg>
