<svg width="395" height="156" viewBox="0 0 395 156" fill="none" xmlns="http://www.w3.org/2000/svg">
<g clip-path="url(#clip0_2_1317)">
<path d="M256.412 44.6137C259.443 44.6137 261.899 42.1572 261.899 39.1268C261.899 36.0965 259.443 33.6399 256.412 33.6399C253.382 33.6399 250.925 36.0965 250.925 39.1268C250.925 42.1572 253.382 44.6137 256.412 44.6137Z" fill="#E534BB"/>
<path d="M256.412 42.7959C258.439 42.7959 260.081 41.1532 260.081 39.1268C260.081 37.1004 258.439 35.4577 256.412 35.4577C254.386 35.4577 252.743 37.1004 252.743 39.1268C252.743 41.1532 254.386 42.7959 256.412 42.7959Z" fill="white"/>
<path d="M243.928 122.166C246.958 122.166 249.415 119.709 249.415 116.679C249.415 113.649 246.958 111.192 243.928 111.192C240.898 111.192 238.441 113.649 238.441 116.679C238.441 119.709 240.898 122.166 243.928 122.166Z" fill="#E534BB"/>
<path d="M243.928 120.348C245.954 120.348 247.597 118.705 247.597 116.679C247.597 114.653 245.954 113.01 243.928 113.01C241.902 113.01 240.259 114.653 240.259 116.679C240.259 118.705 241.902 120.348 243.928 120.348Z" fill="white"/>
<path d="M324.401 80.2754C327.431 80.2754 329.888 77.8189 329.888 74.7885C329.888 71.7582 327.431 69.3016 324.401 69.3016C321.37 69.3016 318.914 71.7582 318.914 74.7885C318.914 77.8189 321.37 80.2754 324.401 80.2754Z" fill="#E534BB"/>
<path d="M324.401 78.4576C326.427 78.4576 328.07 76.8149 328.07 74.7885C328.07 72.7621 326.427 71.1194 324.401 71.1194C322.374 71.1194 320.732 72.7621 320.732 74.7885C320.732 76.8149 322.374 78.4576 324.401 78.4576Z" fill="white"/>
<g opacity="0.7">
<g filter="url(#filter0_d_2_1317)">
<path d="M166.316 25.1388H18.8504C15.8975 25.1388 13.5038 27.5326 13.5038 30.4854V122.954C13.5038 125.907 15.8975 128.301 18.8504 128.301H166.316C169.269 128.301 171.662 125.907 171.662 122.954V30.4854C171.662 27.5326 169.269 25.1388 166.316 25.1388Z" fill="#E534BB"/>
</g>
</g>
<path opacity="0.7" d="M158.436 40.8979H23.1744C22.0856 40.8979 21.2029 41.7806 21.2029 42.8694V56.7304C21.2029 57.8193 22.0856 58.702 23.1744 58.702H158.436C159.525 58.702 160.408 57.8193 160.408 56.7304V42.8694C160.408 41.7806 159.525 40.8979 158.436 40.8979Z" fill="#FCCCD8"/>
<path opacity="0.7" d="M95.3332 66.9892H22.7801C21.909 66.9892 21.2029 67.6953 21.2029 68.5664V75.1427C21.2029 76.0138 21.909 76.72 22.7801 76.72H95.3332C96.2043 76.72 96.9104 76.0138 96.9104 75.1427V68.5664C96.9104 67.6953 96.2043 66.9892 95.3332 66.9892Z" fill="#FCCCD8"/>
<path opacity="0.7" d="M104.569 77.3148V107.095C104.569 112.388 108.86 116.679 114.153 116.679H150.831C156.124 116.679 160.414 112.388 160.414 107.095V77.3148C160.414 72.0218 156.124 67.731 150.831 67.731H114.153C108.86 67.731 104.569 72.0218 104.569 77.3148Z" fill="#FCCCD8"/>
<path opacity="0.7" d="M95.8278 85.0071H22.2856C21.6876 85.0071 21.2029 85.4919 21.2029 86.0898V86.0965C21.2029 86.6945 21.6876 87.1792 22.2856 87.1792H95.8278C96.4257 87.1792 96.9104 86.6945 96.9104 86.0965V86.0898C96.9104 85.4919 96.4257 85.0071 95.8278 85.0071Z" fill="#FCCCD8"/>
<path opacity="0.7" d="M95.8278 93.2208H22.2856C21.6876 93.2208 21.2029 93.7056 21.2029 94.3035V94.3102C21.2029 94.9081 21.6876 95.3929 22.2856 95.3929H95.8278C96.4257 95.3929 96.9104 94.9081 96.9104 94.3102V94.3035C96.9104 93.7056 96.4257 93.2208 95.8278 93.2208Z" fill="#FCCCD8"/>
<path opacity="0.7" d="M72.2694 108.619H22.6264C22.0284 108.619 21.5437 109.104 21.5437 109.702V109.708C21.5437 110.306 22.0284 110.791 22.6264 110.791H72.2694C72.8673 110.791 73.3521 110.306 73.3521 109.708V109.702C73.3521 109.104 72.8673 108.619 72.2694 108.619Z" fill="#FCCCD8"/>
<path opacity="0.7" d="M95.8278 101.475H22.2856C21.6876 101.475 21.2029 101.959 21.2029 102.557V102.564C21.2029 103.162 21.6876 103.647 22.2856 103.647H95.8278C96.4257 103.647 96.9104 103.162 96.9104 102.564V102.557C96.9104 101.959 96.4257 101.475 95.8278 101.475Z" fill="#FCCCD8"/>
<path opacity="0.7" d="M33.7139 35.0166C34.6772 35.0166 35.4582 34.2357 35.4582 33.2723C35.4582 32.309 34.6772 31.528 33.7139 31.528C32.7505 31.528 31.9695 32.309 31.9695 33.2723C31.9695 34.2357 32.7505 35.0166 33.7139 35.0166Z" fill="white"/>
<path opacity="0.7" d="M22.8069 35.0166C23.7702 35.0166 24.5512 34.2357 24.5512 33.2723C24.5512 32.309 23.7702 31.528 22.8069 31.528C21.8435 31.528 21.0626 32.309 21.0626 33.2723C21.0626 34.2357 21.8435 35.0166 22.8069 35.0166Z" fill="white"/>
<path opacity="0.7" d="M28.4876 35.0166C29.451 35.0166 30.2319 34.2357 30.2319 33.2723C30.2319 32.309 29.451 31.528 28.4876 31.528C27.5242 31.528 26.7433 32.309 26.7433 33.2723C26.7433 34.2357 27.5242 35.0166 28.4876 35.0166Z" fill="white"/>
<path opacity="0.25" d="M171.656 30.4854V122.954C171.656 124.372 171.092 125.732 170.09 126.735C169.087 127.738 167.727 128.301 166.309 128.301H18.8504C17.9994 128.301 17.1606 128.098 16.4039 127.709C15.6471 127.319 14.9943 126.755 14.4996 126.062L169.169 25.9609C169.932 26.4438 170.56 27.112 170.995 27.9032C171.43 28.6943 171.657 29.5827 171.656 30.4854Z" fill="#F4F4F4"/>
<path d="M251.995 39.1268H234.471L208.266 74.7885H200.313H208.266L229.038 116.679H238.775" stroke="#E534BB" stroke-width="2.00497" stroke-miterlimit="10"/>
<g filter="url(#filter1_d_2_1317)">
<path d="M372.012 45.9638H335.923C330.475 45.9638 326.058 50.3802 326.058 55.8282V93.3077C326.058 98.7557 330.475 103.172 335.923 103.172H372.012C377.46 103.172 381.876 98.7557 381.876 93.3077V55.8282C381.876 50.3802 377.46 45.9638 372.012 45.9638Z" fill="url(#paint0_linear_2_1317)"/>
</g>
<path d="M364.914 100.86C364.914 100.86 351.093 100.86 348.52 100.86C348.52 94.0562 347.618 90.4473 347.618 90.4473C347.618 90.4473 344.41 91.3295 342.579 91.2426C338.569 91.0622 339.331 83.5636 339.411 78.9655H337.179C337.098 78.9685 337.017 78.9514 336.943 78.9156C336.87 78.8798 336.807 78.8264 336.759 78.7603C336.712 78.6941 336.681 78.6173 336.67 78.5365C336.66 78.4557 336.669 78.3735 336.698 78.2972C337.052 77.1477 337.827 74.568 338.656 71.4937C338.983 70.284 339.324 69.0008 339.638 67.7043C340.016 66.7138 340.498 65.7662 341.075 64.8773C341.236 64.9709 346.469 67.7711 359.06 68.4261C359.903 68.4592 360.731 68.658 361.497 69.0112C362.263 69.3644 362.952 69.865 363.524 70.4845C365.088 72.2489 365.716 74.9823 360.463 78.2705C360.33 78.6514 361.132 86.2101 361.132 86.2101C361.132 86.2101 364.701 86.3839 365.028 86.1166C365.028 86.1166 364.908 86.1166 364.807 86.3438C363.945 87.8676 362.127 95.5533 364.914 100.86Z" fill="white"/>
<path d="M370.949 73.6189C370.946 76.0639 370.39 78.4764 369.322 80.6756C368.253 82.8748 366.701 84.8035 364.781 86.3171L365.001 86.0698C364.674 86.3371 361.105 86.1834 361.105 86.1834C361.105 86.1834 360.33 78.6247 360.437 78.2437C365.69 74.9556 365.061 72.2288 363.498 70.4578C362.925 69.8383 362.236 69.3377 361.47 68.9845C360.704 68.6313 359.876 68.4325 359.033 68.3993C346.442 67.731 341.209 64.9441 341.049 64.8506C342.94 61.9004 345.737 59.6423 349.02 58.4144C352.302 57.1866 355.894 57.0549 359.258 58.0391C362.621 59.0234 365.576 61.0706 367.679 63.8744C369.781 66.6781 370.919 70.0875 370.923 73.5922L370.949 73.6189Z" fill="#E534BB"/>
<g filter="url(#filter2_d_2_1317)">
<path d="M303.87 10.5226H267.78C262.332 10.5226 257.916 14.9391 257.916 20.3871V57.8666C257.916 63.3146 262.332 67.731 267.78 67.731H303.87C309.318 67.731 313.734 63.3146 313.734 57.8666V20.3871C313.734 14.9391 309.318 10.5226 303.87 10.5226Z" fill="url(#paint1_linear_2_1317)"/>
</g>
<path d="M296.324 64.3293H279.864C279.874 59.9966 279.41 55.6757 278.48 51.444L278.44 51.2702H278.146C276.729 51.1767 270.614 50.3279 270.754 42.4484H267.847C268.64 40.4617 269.325 38.4338 269.899 36.3733C270.372 34.6727 270.742 32.9454 271.008 31.2005C271.324 30.385 271.708 29.5979 272.158 28.848C271.757 29.9307 272.525 32.5104 289.735 31.9089C290.67 31.8638 291.604 32.0193 292.475 32.3651C293.345 32.711 294.131 33.239 294.781 33.9139C296.365 35.6181 297.133 38.2446 292.408 41.4325C292.225 41.5575 292.085 41.7371 292.01 41.9459C291.934 42.1546 291.926 42.3819 291.987 42.5954C292.395 44.1326 293.431 47.5009 292.849 49.1383C292.773 49.3235 292.749 49.5264 292.781 49.7242C292.813 49.9221 292.899 50.1072 293.03 50.2589C293.161 50.4106 293.332 50.523 293.523 50.5836C293.714 50.6441 293.918 50.6505 294.112 50.6019C294.884 50.3517 295.622 50.0083 296.311 49.5794C296.311 49.5794 296.244 49.6863 296.144 49.8801C295.295 51.3638 294.627 59.2901 296.324 64.3293Z" fill="white"/>
<path d="M302.293 37.1152C302.291 39.5603 301.735 41.9732 300.666 44.1725C299.598 46.3718 298.045 48.3004 296.124 49.8133C296.224 49.6195 296.291 49.5126 296.291 49.5126C295.602 49.9415 294.864 50.2849 294.092 50.5351C293.898 50.5837 293.694 50.5773 293.503 50.5167C293.312 50.4562 293.141 50.3438 293.01 50.1921C292.879 50.0403 292.793 49.8552 292.761 49.6574C292.729 49.4595 292.753 49.2567 292.829 49.0715C293.411 47.4341 292.375 44.0657 291.967 42.5286C291.906 42.3151 291.914 42.0878 291.989 41.8791C292.065 41.6703 292.205 41.4907 292.388 41.3657C297.113 38.1778 296.345 35.5513 294.761 33.8471C294.111 33.1722 293.325 32.6441 292.455 32.2983C291.584 31.9525 290.65 31.7969 289.715 31.8421C272.505 32.4436 271.737 29.8371 272.138 28.7812C273.955 25.7307 276.724 23.3609 280.018 22.0354C283.312 20.71 286.95 20.5021 290.374 21.4438C293.798 22.3855 296.818 24.4246 298.971 27.2483C301.124 30.072 302.291 33.5242 302.293 37.0751V37.1152Z" fill="#E534BB"/>
<g filter="url(#filter3_d_2_1317)">
<path d="M294.066 85.9695H254.374C249.457 85.9695 245.472 89.9551 245.472 94.8716V136C245.472 140.917 249.457 144.902 254.374 144.902H294.066C298.982 144.902 302.968 140.917 302.968 136V94.8716C302.968 89.9551 298.982 85.9695 294.066 85.9695Z" fill="url(#paint2_linear_2_1317)"/>
</g>
<path d="M281.2 142.824H264.459C264.432 137.756 263.985 132.7 263.122 127.706C263.089 127.586 263.075 127.526 263.075 127.526C262.92 127.503 262.766 127.469 262.614 127.426C261.311 127.045 257.582 125.421 255.149 118.61L255.109 118.49C255.109 118.423 255.056 118.35 255.035 118.283H251.988C252.736 114.754 253.677 111.269 254.808 107.844C254.949 107.436 255.089 107.015 255.236 106.601C255.581 105.695 256.009 104.822 256.512 103.994C256.045 105.077 256.593 107.884 274.871 107.242C275.849 107.193 276.825 107.353 277.736 107.711C278.646 108.069 279.47 108.618 280.151 109.321C281.808 111.098 282.617 113.852 277.672 117.187C277.479 117.317 277.332 117.505 277.252 117.723C277.171 117.941 277.161 118.179 277.224 118.403C277.658 120.014 278.734 123.536 278.133 125.247C278.053 125.442 278.029 125.656 278.063 125.864C278.098 126.072 278.19 126.266 278.328 126.425C278.467 126.584 278.647 126.701 278.849 126.763C279.05 126.825 279.265 126.83 279.469 126.777C280.278 126.522 281.05 126.165 281.768 125.715C281.768 125.715 281.702 125.822 281.588 126.029C280.679 127.626 279.509 137.096 281.2 142.824Z" fill="white"/>
<path d="M288.011 112.716C288.012 115.279 287.431 117.81 286.312 120.116C285.192 122.422 283.563 124.444 281.548 126.029C281.661 125.822 281.728 125.715 281.728 125.715C281.01 126.165 280.237 126.522 279.429 126.777C279.225 126.83 279.01 126.825 278.809 126.763C278.607 126.701 278.427 126.584 278.288 126.425C278.149 126.266 278.058 126.072 278.023 125.864C277.989 125.656 278.013 125.442 278.093 125.247C278.694 123.536 277.618 120.014 277.184 118.403C277.121 118.179 277.131 117.941 277.211 117.723C277.292 117.505 277.439 117.317 277.631 117.187C282.577 113.845 281.768 111.098 280.111 109.321C279.43 108.618 278.606 108.069 277.696 107.711C276.785 107.352 275.809 107.193 274.831 107.242C256.553 107.911 256.005 105.077 256.472 103.994C256.549 103.851 256.634 103.713 256.726 103.58C258.705 100.491 261.631 98.1264 265.067 96.8405C268.502 95.5546 272.262 95.4165 275.782 96.447C279.302 97.4774 282.394 99.621 284.594 102.556C286.794 105.492 287.983 109.061 287.984 112.729L288.011 112.716Z" fill="#E534BB"/>
<path d="M278.667 97.5983L279.924 96.5223C279.924 96.5223 285.377 99.9041 286.694 102.865L285.538 103.807" fill="white"/>
<path d="M279.924 96.5223C279.924 96.5223 280.559 85.475 289.02 92.0245C297.481 98.5741 298.43 117.421 296.652 120.762C296.652 120.762 297.588 115.075 293.678 113.658C289.768 112.241 286.473 102.664 286.473 102.664" fill="#E534BB"/>
<g filter="url(#filter4_d_2_1317)">
<path d="M189.319 55.0797H156.886C154.206 55.0797 152.034 57.252 152.034 59.9317V93.5082C152.034 96.1879 154.206 98.3602 156.886 98.3602H189.319C191.999 98.3602 194.171 96.1879 194.171 93.5082V59.9317C194.171 57.252 191.999 55.0797 189.319 55.0797Z" fill="#F9F9F9"/>
</g>
<g filter="url(#filter5_d_2_1317)">
<path d="M163.355 76.4727C163.355 77.6492 163.587 78.8142 164.038 79.9009C164.489 80.9875 165.15 81.9745 165.984 82.8052C166.817 83.6359 167.806 84.294 168.894 84.7418C169.982 85.1896 171.147 85.4183 172.324 85.4148H187.695V92.6929H172.324C170.195 92.6929 168.086 92.2735 166.119 91.4587C164.152 90.6439 162.365 89.4496 160.859 87.944C159.354 86.4385 158.159 84.6511 157.345 82.684C156.53 80.7169 156.11 78.6085 156.11 76.4794C156.11 74.3502 156.53 72.2418 157.345 70.2747C158.159 68.3076 159.354 66.5202 160.859 65.0147C162.365 63.5091 164.152 62.3148 166.119 61.5C168.086 60.6852 170.195 60.2659 172.324 60.2659H187.695V67.5439H172.324C171.148 67.5404 169.984 67.7686 168.897 68.2156C167.81 68.6626 166.821 69.3195 165.988 70.1488C165.155 70.9781 164.494 71.9635 164.042 73.0486C163.59 74.1337 163.357 75.2972 163.355 76.4727Z" stroke="#8D8CA3" stroke-width="0.875502" stroke-miterlimit="10" shape-rendering="crispEdges"/>
</g>
<path d="M187.769 85.4148H179.455V92.6929H187.769V85.4148Z" fill="#8D8CA3"/>
<path d="M187.769 60.2659H179.455V67.5439H187.769V60.2659Z" fill="#8D8CA3"/>
<path opacity="0.35" d="M187.769 70.5313H170.807C170.807 70.5313 166.563 70.5313 166.563 76.4794" stroke="#8D8CA3" stroke-width="0.668322" stroke-miterlimit="10"/>
<path opacity="0.35" d="M160.221 90.2401C160.221 90.2401 165.133 94.9919 171.094 94.9919H188.163" stroke="#8D8CA3" stroke-width="0.668322" stroke-miterlimit="10"/>
<path d="M208.266 74.7885H318.914" stroke="#E534BB" stroke-width="1.89135" stroke-miterlimit="10"/>
</g>
<defs>
<filter id="filter0_d_2_1317" x="9.50378" y="25.1388" width="166.158" height="111.162" filterUnits="userSpaceOnUse" color-interpolation-filters="sRGB">
<feFlood flood-opacity="0" result="BackgroundImageFix"/>
<feColorMatrix in="SourceAlpha" type="matrix" values="0 0 0 0 0 0 0 0 0 0 0 0 0 0 0 0 0 0 127 0" result="hardAlpha"/>
<feOffset dy="4"/>
<feGaussianBlur stdDeviation="2"/>
<feComposite in2="hardAlpha" operator="out"/>
<feColorMatrix type="matrix" values="0 0 0 0 0 0 0 0 0 0 0 0 0 0 0 0 0 0 0.25 0"/>
<feBlend mode="normal" in2="BackgroundImageFix" result="effect1_dropShadow_2_1317"/>
<feBlend mode="normal" in="SourceGraphic" in2="effect1_dropShadow_2_1317" result="shape"/>
</filter>
<filter id="filter1_d_2_1317" x="322.058" y="45.9638" width="63.8183" height="65.2084" filterUnits="userSpaceOnUse" color-interpolation-filters="sRGB">
<feFlood flood-opacity="0" result="BackgroundImageFix"/>
<feColorMatrix in="SourceAlpha" type="matrix" values="0 0 0 0 0 0 0 0 0 0 0 0 0 0 0 0 0 0 127 0" result="hardAlpha"/>
<feOffset dy="4"/>
<feGaussianBlur stdDeviation="2"/>
<feComposite in2="hardAlpha" operator="out"/>
<feColorMatrix type="matrix" values="0 0 0 0 0 0 0 0 0 0 0 0 0 0 0 0 0 0 0.25 0"/>
<feBlend mode="normal" in2="BackgroundImageFix" result="effect1_dropShadow_2_1317"/>
<feBlend mode="normal" in="SourceGraphic" in2="effect1_dropShadow_2_1317" result="shape"/>
</filter>
<filter id="filter2_d_2_1317" x="253.916" y="10.5226" width="63.8183" height="65.2084" filterUnits="userSpaceOnUse" color-interpolation-filters="sRGB">
<feFlood flood-opacity="0" result="BackgroundImageFix"/>
<feColorMatrix in="SourceAlpha" type="matrix" values="0 0 0 0 0 0 0 0 0 0 0 0 0 0 0 0 0 0 127 0" result="hardAlpha"/>
<feOffset dy="4"/>
<feGaussianBlur stdDeviation="2"/>
<feComposite in2="hardAlpha" operator="out"/>
<feColorMatrix type="matrix" values="0 0 0 0 0 0 0 0 0 0 0 0 0 0 0 0 0 0 0.25 0"/>
<feBlend mode="normal" in2="BackgroundImageFix" result="effect1_dropShadow_2_1317"/>
<feBlend mode="normal" in="SourceGraphic" in2="effect1_dropShadow_2_1317" result="shape"/>
</filter>
<filter id="filter3_d_2_1317" x="241.472" y="85.9695" width="65.4958" height="66.9327" filterUnits="userSpaceOnUse" color-interpolation-filters="sRGB">
<feFlood flood-opacity="0" result="BackgroundImageFix"/>
<feColorMatrix in="SourceAlpha" type="matrix" values="0 0 0 0 0 0 0 0 0 0 0 0 0 0 0 0 0 0 127 0" result="hardAlpha"/>
<feOffset dy="4"/>
<feGaussianBlur stdDeviation="2"/>
<feComposite in2="hardAlpha" operator="out"/>
<feColorMatrix type="matrix" values="0 0 0 0 0 0 0 0 0 0 0 0 0 0 0 0 0 0 0.25 0"/>
<feBlend mode="normal" in2="BackgroundImageFix" result="effect1_dropShadow_2_1317"/>
<feBlend mode="normal" in="SourceGraphic" in2="effect1_dropShadow_2_1317" result="shape"/>
</filter>
<filter id="filter4_d_2_1317" x="148.034" y="55.0797" width="50.1377" height="51.2806" filterUnits="userSpaceOnUse" color-interpolation-filters="sRGB">
<feFlood flood-opacity="0" result="BackgroundImageFix"/>
<feColorMatrix in="SourceAlpha" type="matrix" values="0 0 0 0 0 0 0 0 0 0 0 0 0 0 0 0 0 0 127 0" result="hardAlpha"/>
<feOffset dy="4"/>
<feGaussianBlur stdDeviation="2"/>
<feComposite in2="hardAlpha" operator="out"/>
<feColorMatrix type="matrix" values="0 0 0 0 0 0 0 0 0 0 0 0 0 0 0 0 0 0 0.25 0"/>
<feBlend mode="normal" in2="BackgroundImageFix" result="effect1_dropShadow_2_1317"/>
<feBlend mode="normal" in="SourceGraphic" in2="effect1_dropShadow_2_1317" result="shape"/>
</filter>
<filter id="filter5_d_2_1317" x="151.673" y="57.8281" width="40.4604" height="41.3025" filterUnits="userSpaceOnUse" color-interpolation-filters="sRGB">
<feFlood flood-opacity="0" result="BackgroundImageFix"/>
<feColorMatrix in="SourceAlpha" type="matrix" values="0 0 0 0 0 0 0 0 0 0 0 0 0 0 0 0 0 0 127 0" result="hardAlpha"/>
<feOffset dy="2"/>
<feGaussianBlur stdDeviation="2"/>
<feComposite in2="hardAlpha" operator="out"/>
<feColorMatrix type="matrix" values="0 0 0 0 0 0 0 0 0 0 0 0 0 0 0 0 0 0 0.8 0"/>
<feBlend mode="normal" in2="BackgroundImageFix" result="effect1_dropShadow_2_1317"/>
<feBlend mode="normal" in="SourceGraphic" in2="effect1_dropShadow_2_1317" result="shape"/>
</filter>
<linearGradient id="paint0_linear_2_1317" x1="353.967" y1="12.8618" x2="353.967" y2="68.68" gradientUnits="userSpaceOnUse">
<stop stop-color="white"/>
<stop offset="1" stop-color="#E331B8"/>
</linearGradient>
<linearGradient id="paint1_linear_2_1317" x1="285.825" y1="-19.1843" x2="285.825" y2="36.6273" gradientUnits="userSpaceOnUse">
<stop stop-color="white"/>
<stop offset="1" stop-color="#E533BA"/>
</linearGradient>
<linearGradient id="paint2_linear_2_1317" x1="274.223" y1="54.5584" x2="274.223" y2="112.054" gradientUnits="userSpaceOnUse">
<stop stop-color="white"/>
<stop offset="1" stop-color="#E230B7"/>
</linearGradient>
<clipPath id="clip0_2_1317">
<rect width="394.25" height="155.16" fill="white" transform="translate(0.565063 0.282776)"/>
</clipPath>
</defs>
</svg>
