<svg width="181" height="46" viewBox="0 0 181 46" fill="none" xmlns="http://www.w3.org/2000/svg">
<path fill-rule="evenodd" clip-rule="evenodd" d="M0.813354 42.4789C0.813354 44.0269 2.10935 45.3229 3.65735 45.3229H6.64535C8.19335 45.3229 9.48935 44.0629 9.48935 42.4789V11.2669C9.48935 9.71893 10.7854 8.42293 12.3334 8.42293H27.9574C29.5054 8.42293 30.8014 7.16293 30.8014 5.57893V3.77893C30.8014 2.23093 29.5054 0.93493 27.9574 0.93493H3.65735C2.10935 0.93493 0.813354 2.19493 0.813354 3.77893V42.4789ZM34.9414 42.4789C34.9414 44.0269 36.2374 45.3229 37.7854 45.3229H40.4854C42.0334 45.3229 43.3294 44.0629 43.3294 42.4789V15.3709C43.3294 13.8229 42.0334 12.5269 40.4854 12.5269H37.7854C36.2374 12.5269 34.9414 13.7869 34.9414 15.3709V42.4789ZM89.2654 45.2869C87.7173 45.2869 86.4213 44.0269 86.4213 42.4429V15.3709C86.4213 13.8229 87.7173 12.5269 89.2654 12.5269H91.9653C93.5134 12.5269 94.8093 13.7869 94.8093 15.3709V42.4429C94.8093 43.9909 93.5134 45.2869 91.9653 45.2869H89.2654ZM107.445 13.8229C106.869 12.9589 106.041 12.5629 105.033 12.5629H103.197C100.929 12.5629 99.4893 15.1189 100.929 16.9549L108.165 27.2869C108.885 28.2949 108.885 29.5549 108.165 30.5629L100.929 40.6429C99.6334 42.4789 100.929 45.1789 103.197 45.1789H105.033C106.041 45.1789 106.869 44.7469 107.301 43.9189L113.421 34.9909C113.421 34.9909 113.421 34.9909 113.421 34.8469C113.565 34.4149 114.285 34.4149 114.429 34.8469L120.693 43.7749C121.269 44.4949 122.097 45.0349 122.961 45.0349H124.797C127.065 45.0349 128.505 42.4789 127.065 40.4989L119.829 30.1669C119.109 29.1589 119.109 27.8989 119.829 26.8909L126.921 16.6669C128.217 14.8309 126.921 12.2749 124.653 12.2749H123.105C122.097 12.2749 121.269 12.7069 120.693 13.5349L114.717 22.4629V22.6069C114.429 23.0389 113.853 23.0389 113.709 22.6069C113.709 22.6069 113.709 22.6069 113.709 22.4629L107.445 13.8229ZM136.317 45.2869C134.769 45.2869 133.473 44.0269 133.473 42.4429V15.3709C133.473 13.8229 134.769 12.5269 136.317 12.5269H139.017C140.565 12.5269 141.861 13.7869 141.861 15.3709V42.4429C141.861 43.9909 140.565 45.2869 139.017 45.2869H136.317ZM154.101 43.5949C156.657 45.1429 159.789 45.8629 163.497 45.8629C167.061 45.8629 170.193 45.1429 172.749 43.5949C175.305 42.0469 177.285 39.9229 178.725 37.3669C180.129 34.8109 180.849 31.9669 180.849 29.0149C180.849 26.0629 180.129 23.2189 178.725 20.6629C177.321 18.1069 175.305 15.9829 172.749 14.4349C170.193 12.8869 167.061 12.0229 163.497 12.0229C159.933 12.0229 156.801 12.8869 154.245 14.4349C151.689 15.9829 149.709 17.9629 148.269 20.6629C146.865 23.2189 146.145 26.0629 146.145 29.0149C146.145 31.9669 146.865 34.8109 148.269 37.3669C149.529 39.9229 151.509 42.0469 154.101 43.5949ZM155.937 34.0909C155.217 32.5429 154.785 30.8149 154.785 28.9789C154.785 27.1429 155.217 25.4509 155.937 23.8669C156.657 22.3189 157.773 21.1669 159.069 20.3389C160.365 19.4749 161.769 19.0789 163.461 19.0789C165.009 19.0789 166.449 19.5109 167.853 20.3389C169.149 21.2029 170.121 22.3189 170.985 23.8669C171.849 25.2709 172.137 26.9989 172.137 28.8349C172.137 30.6709 171.705 32.5069 170.985 33.9469C170.265 35.3509 169.149 36.5029 167.853 37.4749C166.557 38.3389 165.153 38.7349 163.461 38.7349C161.769 38.7349 160.329 38.3029 159.069 37.4749C157.809 36.6469 156.657 35.5309 155.937 34.0909ZM57.4053 28.4389C57.4053 25.5949 57.8374 23.9029 58.7014 22.8949C59.2774 22.0309 60.8254 21.0589 64.8214 21.0589C68.8174 21.0589 69.9333 22.2109 70.3653 22.7509C71.0854 23.7589 71.3734 25.4509 71.3734 28.4389V42.3349C71.3734 43.8829 72.6693 45.1789 74.2173 45.1789H77.0614C78.6094 45.1789 79.9053 43.9189 79.9053 42.3349V28.4389C79.9053 25.3069 79.6173 21.0589 77.3493 17.8189C74.7934 14.1469 70.3653 12.4189 64.8214 12.4189C59.1334 12.4189 54.8854 13.9669 52.0414 17.5309C49.3414 20.8069 48.9093 24.9109 48.9093 28.2949V42.1909C48.9093 43.7389 50.2054 45.0349 51.7534 45.0349H54.5974C56.1454 45.0349 57.4414 43.7749 57.4414 42.1909V28.4389H57.4053Z" fill="#C8C7CC"/>
<path d="M34.9414 3.34693V6.04693C34.9414 7.59493 36.2374 8.89093 37.7854 8.89093H40.4854C42.0334 8.89093 43.3294 7.63093 43.3294 6.04693V3.34693C43.3294 1.79893 42.0334 0.50293 40.4854 0.50293H37.7854C36.2014 0.50293 34.9414 1.76293 34.9414 3.34693Z" fill="#C8C7CC"/>
<path d="M86.4214 3.34693V6.04693C86.4214 7.59493 87.7174 8.89093 89.2654 8.89093H91.8214C93.3694 8.89093 94.6654 7.63093 94.6654 6.04693V3.34693C94.6654 1.79893 93.3694 0.50293 91.8214 0.50293H89.1214C87.6814 0.50293 86.4214 1.76293 86.4214 3.34693Z" fill="#C8C7CC"/>
<path d="M133.473 3.34693V6.04693C133.473 7.59493 134.769 8.89093 136.317 8.89093H139.017C140.565 8.89093 141.861 7.63093 141.861 6.04693V3.34693C141.861 1.79893 140.565 0.50293 139.017 0.50293H136.317C134.733 0.50293 133.473 1.76293 133.473 3.34693Z" fill="#C8C7CC"/>
<path d="M12.7654 22.4629V25.1629C12.7654 26.7109 14.0614 28.0069 15.6094 28.0069H18.3094C19.8574 28.0069 21.1534 26.7469 21.1534 25.1629V22.4629C21.1534 20.9149 19.8574 19.6189 18.3094 19.6189H15.6094C14.0254 19.6549 12.7654 20.9149 12.7654 22.4629Z" fill="#C8C7CC"/>
</svg>
