<svg width="133" height="81" viewBox="0 0 133 81" fill="none" xmlns="http://www.w3.org/2000/svg">
<path fill-rule="evenodd" clip-rule="evenodd" d="M101.18 71.9588V61.4675H95.4051V73.071C95.4051 76.9959 99.469 80.1829 104.495 80.1829C109.522 80.1829 113.586 76.9745 113.586 73.071V61.4675H107.832V71.9588C107.798 72.8171 107.432 73.6289 106.813 74.224C106.193 74.8191 105.368 75.1515 104.509 75.1515C103.65 75.1515 102.824 74.8191 102.205 74.224C101.585 73.6289 101.22 72.8171 101.185 71.9588" fill="#797891"/>
<path fill-rule="evenodd" clip-rule="evenodd" d="M132.413 79.5305H126.596V48.9978H132.413V79.5305Z" fill="#797891"/>
<path fill-rule="evenodd" clip-rule="evenodd" d="M122.58 79.5305H116.757V48.9978H122.58V79.5305Z" fill="#797891"/>
<path fill-rule="evenodd" clip-rule="evenodd" d="M10.3252 55.4038H7.165V79.5305H0.9729V50.3934H11.6192C13.7481 50.3448 15.8191 51.0889 17.4302 52.4812C19.0414 53.8736 20.0778 55.8148 20.3383 57.9282C20.5988 60.0416 20.0649 62.1765 18.8401 63.9184C17.6152 65.6603 15.7869 66.885 13.71 67.3549L22.2656 79.5252H14.9559L8.77987 69.991V63.0396H10.2129C12.5015 63.0396 14.3517 61.3285 14.3517 59.227C14.3334 58.1983 13.9075 57.219 13.1676 56.5041C12.4276 55.7892 11.4342 55.3973 10.4054 55.4145H10.3306" fill="#797891"/>
<path d="M27.7091 68.3387C27.7091 67.8718 27.8011 67.4094 27.9798 66.9779C28.1585 66.5465 28.4204 66.1545 28.7506 65.8243C29.0808 65.4941 29.4728 65.2322 29.9042 65.0535C30.3356 64.8748 30.798 64.7828 31.265 64.7828C31.732 64.7828 32.1944 64.8748 32.6258 65.0535C33.0572 65.2322 33.4492 65.4941 33.7794 65.8243C34.1096 66.1545 34.3715 66.5465 34.5502 66.9779C34.7289 67.4094 34.8209 67.8718 34.8209 68.3387H27.7091ZM40.5424 71.6861C40.5816 71.2791 40.5995 70.8704 40.5959 70.4616C40.6815 64.1625 36.5213 60.7136 31.2062 60.7136C28.6639 60.7732 26.2458 61.8249 24.4688 63.644C22.6918 65.4632 21.697 67.9052 21.697 70.4482C21.697 72.9912 22.6918 75.4333 24.4688 77.2524C26.2458 79.0715 28.6639 80.1233 31.2062 80.1829C35.2647 80.1829 38.4249 78.3488 40.0558 75.4773L35.3342 73.2956C34.9998 73.9732 34.4791 74.5414 33.8332 74.9335C33.1872 75.3256 32.4429 75.5254 31.6874 75.5094C30.6834 75.5603 29.7002 75.2104 28.9542 74.5365C28.2081 73.8626 27.7603 72.9201 27.7091 71.916V71.6861H40.5424Z" fill="#797891"/>
<path d="M53.6913 75.0709C51.3332 75.0709 49.4135 72.9748 49.4135 70.3921C49.4135 67.8094 51.3278 65.7239 53.6913 65.7239C56.0548 65.7239 57.9691 67.8147 57.9691 70.3921C57.9691 72.9694 56.0494 75.0709 53.6913 75.0709ZM63.6906 79.5358V49.0031H57.8835V63.4407C57.1184 62.6676 56.2084 62.053 55.2055 61.6318C54.2027 61.2107 53.1267 60.9913 52.039 60.9863C47.2265 60.9863 43.3444 65.2641 43.3444 70.5044C43.3444 75.7447 47.2372 80.0224 52.039 80.0224C53.1381 80.0147 54.2246 79.7875 55.2347 79.3541C56.2448 78.9207 57.1581 78.2898 57.921 77.4986V79.5305L63.6906 79.5358Z" fill="#797891"/>
<path d="M83.4166 74.472H77.8501V55.4038H81.7162C82.5521 55.4438 83.3402 55.8057 83.9153 56.4137C84.4904 57.0217 84.808 57.8287 84.8015 58.6656C84.8022 59.0708 84.7231 59.4721 84.5687 59.8467C84.4143 60.2213 84.1876 60.5618 83.9016 60.8488C83.6156 61.1358 83.2759 61.3637 82.9018 61.5194C82.5278 61.6751 82.1267 61.7556 81.7215 61.7563H79.6896V66.9912H83.3952C83.8734 66.9933 84.3465 67.0896 84.7875 67.2746C85.2285 67.4595 85.6288 67.7295 85.9654 68.0691C86.3021 68.4088 86.5685 68.8114 86.7496 69.254C86.9306 69.6966 87.0227 70.1705 87.0206 70.6487V70.7343C86.9458 72.8732 85.641 74.3437 83.3952 74.4774M88.2719 63.6706C89.0669 62.9561 89.705 62.0843 90.1459 61.1106C90.5868 60.1368 90.8208 59.0821 90.8332 58.0132C90.831 56.0657 90.0806 54.1935 88.7371 52.7836C87.3522 51.2597 84.8924 50.3988 81.5771 50.3988H71.6313V79.5358H84.4646C89.3841 79.4556 93.3518 75.7447 93.3518 71.1835C93.3518 67.8682 92.1807 65.4994 88.2612 63.6973" fill="#797891"/>
<path d="M47.5741 21.128C47.573 25.2716 48.8007 29.3225 51.1019 32.7683C53.4031 36.2142 56.6744 38.9003 60.5022 40.487C64.33 42.0737 68.5423 42.4896 72.6065 41.6823C76.6707 40.875 80.4043 38.8806 83.335 35.9513C86.2657 33.0221 88.262 29.2896 89.0714 25.2258C89.8808 21.162 89.467 16.9495 87.8823 13.1209C86.2976 9.29227 83.6131 6.01957 80.1684 3.71662C76.7237 1.41368 72.6735 0.183919 68.5299 0.182861C62.9739 0.182861 57.6453 2.38923 53.7157 6.3169C49.786 10.2446 47.5769 15.572 47.5741 21.128Z" fill="#797891"/>
<path d="M85.6731 29.213C85.6459 29.1664 85.6155 29.1217 85.5822 29.0793C85.5381 29.0221 85.4987 28.9613 85.4646 28.8975C85.3042 28.6774 85.1646 28.4429 85.0475 28.197C85.4111 28.2291 85.7908 28.2665 86.1918 28.2826L85.6731 29.213ZM123.462 35.1591C123.44 35.1007 123.415 35.0436 123.387 34.988C123.387 34.8811 123.35 34.7474 123.334 34.6137C123.302 34.2721 123.227 33.9361 123.109 33.6138C122.991 33.3556 122.813 33.1296 122.59 32.9546C122.367 32.7796 122.105 32.6609 121.826 32.6085C121.794 32.4354 121.728 32.2702 121.633 32.1219C121.28 31.6787 120.851 31.302 120.366 31.0097C120.259 30.9402 120.136 30.86 120.093 30.8225L119.986 30.7423C119.731 30.539 119.414 30.4278 119.088 30.4268C118.802 30.4417 118.522 30.5182 118.269 30.6511C118.015 30.784 117.793 30.9702 117.618 31.1968C117.553 31.0364 117.452 30.6621 117.398 30.4589C117.318 30.1648 117.243 29.9242 117.168 29.6836C117.171 29.6485 117.159 29.6139 117.136 29.5873C117.046 29.2309 116.859 28.9065 116.595 28.6498C116.332 28.3931 116.003 28.2142 115.644 28.1329C115.382 28.0962 115.118 28.073 114.853 28.0634C114.601 28.069 114.35 28.0254 114.115 27.935C114.137 27.8585 114.164 27.7835 114.195 27.7104C114.277 27.5102 114.344 27.3048 114.398 27.0955C114.655 26.2524 114.719 25.3625 114.586 24.4914C114.836 24.5252 115.087 24.543 115.34 24.5449C116.185 24.534 117.02 24.3521 117.794 24.0101H117.837C119.323 23.2883 120.794 21.636 120.714 19.5666V19.5078C120.542 17.7218 119.548 16.0321 117.676 14.3584C118.201 14.228 118.698 14.0072 119.147 13.706C120.5 12.8023 121.083 11.1768 120.751 9.25177L120.724 9.11809C120.707 8.89991 120.629 8.69104 120.498 8.51581C120.366 8.34058 120.188 8.2062 119.984 8.12832C119.779 8.05044 119.557 8.03226 119.342 8.0759C119.128 8.11954 118.93 8.22321 118.773 8.37483L118.633 8.50316C118.529 8.61394 118.412 8.71259 118.286 8.79726C117.921 8.97323 117.532 9.09225 117.131 9.15018C116.768 9.21827 116.411 9.31117 116.061 9.42823C114.388 10.0004 113.329 10.9041 112.917 12.1019C112.799 12.5047 112.765 12.9274 112.816 13.344C112.868 13.7606 113.004 14.1622 113.217 14.5241L113.249 14.583C113.785 15.3696 114.415 16.0878 115.126 16.7219C116.024 17.5828 116.88 18.4009 117.056 19.3955C117.056 19.5719 117.136 19.9302 116.521 20.3526C116.233 20.4966 115.913 20.5664 115.591 20.5558C115.033 20.5511 114.483 20.4156 113.987 20.1601C113.227 19.7544 112.491 19.3045 111.784 18.8126C110.636 17.9635 109.377 17.2778 108.041 16.7753C107.416 16.5282 106.767 16.3489 106.105 16.2406C105.392 16.1608 104.706 15.9194 104.1 15.5348L104.025 15.4813C103.806 15.3369 103.576 15.1712 103.351 15.0107C102.652 14.4427 101.854 14.0078 100.998 13.7274C100.682 13.6306 100.359 13.5626 100.03 13.5242C99.7862 13.5133 99.5472 13.4494 99.33 13.3371L98.8754 13.0109C98.2536 12.5303 97.5937 12.1012 96.9023 11.7275C95.7334 11.1875 94.5009 10.7976 93.2341 10.5672C93.1699 10.5672 92.9828 10.3373 92.8705 10.1929C92.6507 9.90003 92.3895 9.64065 92.0952 9.42289C91.1113 8.65288 89.999 7.93635 88.5018 7.93635H88.1329C87.3252 8.05924 86.5768 8.43344 85.994 9.0058C84.8924 9.9683 83.7 10.8346 82.5396 11.6794C80.6399 12.9624 78.8784 14.4391 77.2833 16.0855C75.5829 17.8394 74.9733 20.0265 74.4225 21.9675C74.3477 22.2402 74.2675 22.5022 74.1819 22.807C74.0375 23.3417 73.8985 23.8765 73.7702 24.4112C73.1125 27.0848 72.4761 29.6087 69.9736 31.2343C69.7796 31.36 69.624 31.5369 69.524 31.7454C69.424 31.9539 69.3834 32.1859 69.4068 32.416C69.4302 32.6527 69.5191 32.8783 69.6636 33.0672C69.8082 33.2561 70.0026 33.401 70.225 33.4855C70.5325 33.5927 70.8565 33.6452 71.1821 33.6405C71.1966 33.9147 71.3019 34.1762 71.4816 34.3838C71.6179 34.5319 71.7832 34.6505 71.9671 34.7323C72.151 34.8141 72.3497 34.8575 72.551 34.8597H72.5938C74.3156 34.8597 75.5401 33.8704 76.5989 32.8438C76.9898 33.1971 77.4618 33.4487 77.9731 33.5764L78.1442 33.6084H78.3314C78.9019 33.5124 79.4801 33.4694 80.0585 33.4801C80.5612 33.6405 81.0798 33.833 81.5932 34.0148C81.9889 34.1645 82.3953 34.3196 82.8123 34.4533L83.0102 34.5175H83.192C84.3203 34.4747 84.9512 33.4855 85.1865 33.1058L85.2346 33.0363L85.2667 32.9614C85.305 32.877 85.3354 32.7893 85.3576 32.6994L85.4271 32.9347C85.5344 33.4631 85.7532 33.9626 86.0688 34.3998C86.2249 34.5745 86.4173 34.7129 86.6325 34.8053C86.8477 34.8977 87.0806 34.9418 87.3147 34.9345C87.4743 34.9294 87.6333 34.9133 87.7906 34.8864H87.8494L87.8976 34.9399C88.1543 35.2552 88.4956 35.4907 88.8815 35.619C89.336 35.7687 89.8012 35.8917 90.2557 36.0147C90.8005 36.1611 91.3362 36.3397 91.8599 36.5494H91.9133C92.3351 36.7047 92.7795 36.7896 93.2288 36.8007C93.8051 36.8051 94.3622 36.5933 94.7902 36.2072C95.2993 35.8026 95.6556 35.2369 95.8008 34.603C95.9149 34.5821 96.0274 34.5535 96.1377 34.5175C96.9023 34.2661 97.6509 32.8545 97.6563 32.8438C97.7082 32.748 97.7653 32.6552 97.8274 32.5657C98.0077 32.3008 98.1046 31.9879 98.1054 31.6674C98.1027 31.316 97.9622 30.9798 97.7143 30.7309C97.4663 30.4819 97.1307 30.3401 96.7793 30.3359H94.726C94.5564 30.3436 94.3889 30.3761 94.2287 30.4322V30.3947C94.1218 30.2611 93.9988 29.9456 93.8437 29.86H93.9025L94.2929 29.8975C94.5558 29.925 94.8199 29.9393 95.0843 29.9402C95.9418 29.918 96.7955 29.8178 97.6349 29.6408C98.3448 29.5589 99.0607 29.541 99.7738 29.5873H100.036C100.346 29.5873 100.656 29.614 100.988 29.6408C101.319 29.6675 101.704 29.7103 102.094 29.7103H102.501C102.864 29.6944 103.224 29.6297 103.57 29.5178L103.704 30.1916L103.757 30.4215C103.848 31.023 104.065 31.5983 104.395 32.1091C104.725 32.62 105.16 33.0545 105.672 33.3839L105.886 33.5229C106.475 33.9886 107.175 34.2927 107.918 34.4052C108.265 34.4472 108.617 34.4327 108.96 34.3624C109.62 34.235 110.299 34.2473 110.954 34.3983C111.609 34.5493 112.225 34.8358 112.762 35.2393L112.864 35.3035C112.984 35.3831 113.098 35.4706 113.206 35.5655C113.501 35.8463 113.845 36.0694 114.222 36.2232C114.514 36.3403 114.827 36.4002 115.142 36.3997C115.565 36.4052 115.982 36.2923 116.345 36.0735C116.389 36.1283 116.43 36.1854 116.468 36.2446C116.689 36.5486 116.942 36.8282 117.222 37.0788C117.743 37.5348 118.423 37.7672 119.115 37.7258H120.398C120.501 37.7158 120.603 37.6979 120.703 37.6723C120.844 37.7775 121.008 37.8481 121.182 37.8788C121.356 37.9094 121.534 37.8991 121.703 37.8488L122.89 37.4531C123.056 37.4031 123.209 37.318 123.339 37.2036C123.469 37.0892 123.573 36.9481 123.644 36.79C123.729 36.5377 123.757 36.2694 123.726 36.0049C123.694 35.7403 123.604 35.4861 123.462 35.2607" fill="#C8C7CC"/>
<path d="M53.178 27.9885L53.0282 28.1222C52.6812 28.4138 52.3722 28.748 52.1085 29.1168C51.9481 28.8547 51.8037 28.582 51.67 28.3093C52.1104 28.2429 52.5401 28.1189 52.948 27.9404C53.0264 27.9457 53.105 27.9457 53.1833 27.9404C53.1887 27.9578 53.1887 27.9764 53.1833 27.9938M67.8615 30.8118L67.2305 30.5017C66.6781 30.0771 66.2346 29.5272 65.9365 28.8975C65.76 28.5927 65.5675 28.2772 65.3643 27.9938C65.1655 27.7221 64.9338 27.476 64.6745 27.2613L64.5408 27.1383C63.7312 25.0945 63.2128 22.9471 63.0008 20.759C62.8849 19.9735 62.6257 19.2158 62.2362 18.5239C61.1035 16.8433 59.8658 15.236 58.5305 13.7114L58.2471 13.428L58.1776 13.3638L53.6806 9.64747L53.6111 9.594C53.0075 9.13044 52.3319 8.76915 51.6112 8.52455C50.3423 8.11758 48.971 8.16676 47.7345 8.66358L47.6596 8.70101C47.2895 8.89719 46.9322 9.11688 46.5902 9.35872C46.1134 9.69503 45.5982 9.97327 45.0555 10.1875L44.9539 10.2196C44.4958 10.4156 44.0262 10.5835 43.5476 10.7223C42.3693 11.004 41.2716 11.5529 40.3393 12.3264C40.0933 12.5403 39.8954 12.7275 39.7297 12.8612C39.5639 12.9948 39.3821 13.2034 39.1949 13.3638H39.0078C37.497 13.3096 36.0206 13.8227 34.869 14.8022L34.8316 14.8343C34.1847 15.513 33.4107 16.0581 32.5537 16.4385C32.1725 16.5514 31.7795 16.6196 31.3826 16.6417H31.3399C30.7984 16.6744 30.2612 16.7585 29.7357 16.893C28.4737 17.1871 27.2439 18.1389 26.26 18.9035C25.8269 19.2458 25.5434 19.4383 25.4258 19.5345C25.3398 19.6018 25.2466 19.6592 25.1478 19.7056C24.0783 20.3419 23.1318 20.8927 22.0089 20.8927H21.9555C21.6515 20.8641 21.3613 20.7521 21.1169 20.5691C20.8725 20.386 20.6834 20.139 20.5705 19.8553C20.478 19.4941 20.4858 19.1143 20.5933 18.7572C20.7007 18.4001 20.9036 18.079 21.1801 17.8287C21.5544 17.4544 21.9982 17.0748 22.4314 16.7112C23.1759 16.1261 23.8538 15.4608 24.4526 14.7273C24.8634 14.1423 25.067 13.4368 25.0312 12.7229C24.9953 12.0089 24.7221 11.3274 24.2548 10.7864C23.5275 9.98434 22.2709 9.60469 21.2496 9.34802H21.1641L20.9823 9.31059H20.9234L20.501 9.27316C20.3032 9.23573 20.116 9.20365 19.9395 9.16087C19.5523 9.01721 19.191 8.81131 18.8701 8.55129C18.5917 8.35679 18.3025 8.17827 18.0038 8.01656L17.1804 7.57809L16.6456 8.36413C16.2582 8.96901 16.085 9.68641 16.1537 10.4014V10.4549C16.2829 11.2029 16.5898 11.909 17.0485 12.5138C17.5072 13.1186 18.1044 13.6045 18.7899 13.9306H18.822L18.9664 13.9948C19.2546 14.1119 19.5596 14.1823 19.87 14.2033C19.1154 14.8092 18.4206 15.486 17.7953 16.2246C16.5547 17.5935 16.4852 19.8179 17.0467 21.3044C17.4179 22.18 18.0132 22.9425 18.7725 23.515C19.5319 24.0876 20.4287 24.4502 21.3726 24.5663C21.6594 24.609 21.9489 24.6304 22.2389 24.6304C22.7313 24.6253 23.2221 24.5715 23.704 24.47C23.7128 24.9653 23.7485 25.4598 23.8109 25.9512C23.9486 26.5497 24.1438 27.1335 24.3938 27.6944C24.3884 27.7081 24.3884 27.7234 24.3938 27.7372C24.047 27.9498 23.6752 28.1186 23.2869 28.2398C22.9982 28.2719 22.6827 28.2933 22.4527 28.304C22.337 28.296 22.2209 28.296 22.1052 28.304C21.7643 28.3365 21.4451 28.4857 21.2015 28.7264C20.8506 29.1583 20.5905 29.6567 20.4368 30.1916C20.3299 30.4536 20.2229 30.7263 20.1214 30.9616C20.0236 31.0958 19.9065 31.2147 19.7738 31.3145C19.6082 31.0613 19.398 30.8403 19.1535 30.6621C18.9119 30.4823 18.6202 30.3826 18.3191 30.3768C18.0181 30.3711 17.7227 30.4596 17.4745 30.63L17.2445 30.7851L17.1804 30.8225C16.8106 31.064 16.4536 31.3246 16.1109 31.6032C15.8427 31.8346 15.6554 32.1456 15.5762 32.4909C15.4859 32.5007 15.3975 32.5242 15.3142 32.5604C14.9688 32.7049 14.6648 32.933 14.4296 33.2242C14.1943 33.5155 14.0353 33.8607 13.9667 34.2287C13.9549 34.5191 13.9246 34.8085 13.8758 35.095L13.8116 35.1645C13.5869 35.4108 13.4623 35.7321 13.4623 36.0655C13.4623 36.3989 13.5869 36.7202 13.8116 36.9665C14.4158 37.3507 15.0964 37.5989 15.8061 37.6937H16.1216C16.2022 37.6672 16.2808 37.635 16.3569 37.5975H16.6724C16.872 37.6227 17.0701 37.6584 17.2659 37.7044C17.6616 37.804 18.0667 37.8613 18.4744 37.8755C18.9215 37.8765 19.3621 37.7682 19.7577 37.56C20.3175 37.2557 20.7666 36.7822 21.0411 36.2072C21.1059 36.0846 21.1791 35.9667 21.2603 35.8543L21.3726 35.881C21.5955 35.9491 21.8249 35.9939 22.0571 36.0147C22.9984 36.0079 23.9079 35.6732 24.6291 35.0682C24.8162 34.9132 24.998 34.7474 25.1638 34.5923C25.3295 34.425 25.5083 34.2712 25.6985 34.1325C25.9183 34.0562 26.1505 34.0218 26.383 34.0309C26.8829 34.0504 27.3803 34.113 27.8695 34.218C28.8058 34.4474 29.7939 34.3237 30.6447 33.8704C31.0671 33.6245 31.4949 33.4052 31.8371 33.2234L31.9013 33.1914L32.3879 32.9293C33.1666 32.3962 33.7799 31.6551 34.1578 30.7904C34.3343 30.4322 34.607 29.7691 34.6926 29.582H34.9172C35.4393 29.567 35.9596 29.5116 36.4732 29.4162C36.8047 29.3681 37.1309 29.3146 37.3608 29.3039H37.6924C38.2626 29.3092 38.8321 29.3467 39.3981 29.4162C39.8366 29.4643 40.1414 29.5125 40.7136 29.5392H40.9649C41.152 29.5392 41.3606 29.5713 41.5852 29.5713C42.0949 29.5756 42.5986 29.4602 43.0556 29.2344C43.1679 29.3467 43.3551 29.6087 43.4781 29.7103H43.43C43.2494 29.7083 43.0704 29.7433 42.9039 29.8132C42.7375 29.8831 42.5871 29.9864 42.4621 30.1167C42.0145 29.9763 41.5405 29.9416 41.0772 30.0151C40.5032 30.0624 39.9332 30.1499 39.3714 30.2771C39.1679 30.3063 38.975 30.3863 38.8105 30.5096C38.6461 30.633 38.5153 30.7957 38.4303 30.9829C38.3432 31.1886 38.3055 31.4119 38.3204 31.6348C38.3352 31.8577 38.4022 32.074 38.5158 32.2663C38.8206 32.801 39.1147 33.2983 39.4249 33.8116L39.5586 34.0416C39.6877 34.2494 39.8707 34.4184 40.0882 34.5304C40.3057 34.6425 40.5496 34.6934 40.7938 34.6779H41.1306L41.1895 34.7848C41.4261 35.2784 41.763 35.7173 42.1787 36.0735C42.712 36.511 43.3819 36.7476 44.0716 36.7419C44.3796 36.7432 44.6861 36.6982 44.9807 36.6082C46.3317 36.2196 47.6466 35.7151 48.9109 35.1003H49.4456C50.134 35.1176 50.8024 34.8686 51.3118 34.4052L51.3653 34.3464L51.4134 34.2822C51.6487 33.9453 51.8625 33.6084 52.0604 33.2609L52.0925 33.3892V33.4159C52.2484 33.8072 52.522 34.1403 52.8755 34.3692C53.2289 34.5982 53.6448 34.7116 54.0656 34.6939H54.1084C54.8942 34.6342 55.6661 34.4538 56.397 34.1592H56.4451L56.7285 34.0576H56.7927C57.4815 33.8221 58.2227 33.7851 58.9316 33.9507H59.1615C60.0059 33.8379 60.7905 33.4531 61.3967 32.8545C61.943 33.4382 62.6065 33.9 63.3437 34.2096C64.0809 34.5192 64.8751 34.6697 65.6745 34.6511H66.2092C66.47 34.598 66.7066 34.4621 66.8839 34.2636C67.0612 34.0651 67.1696 33.8147 67.1931 33.5496C67.2092 33.4433 67.2092 33.3351 67.1931 33.2288C67.2954 33.218 67.3972 33.2019 67.4979 33.1807C67.7547 33.1278 67.9888 32.9965 68.1679 32.8049C68.347 32.6134 68.4622 32.371 68.4978 32.1112C68.545 31.8546 68.5068 31.5896 68.3889 31.3569C68.2711 31.1241 68.0802 30.9364 67.8454 30.8225" fill="#C8C7CC"/>
<path d="M93.4266 31.0364C93.3544 30.9732 93.2604 30.9406 93.1646 30.9455H93.0684C92.8558 30.9757 92.6413 30.99 92.4267 30.9883H91.523C91.3007 31.3565 91.1704 31.7729 91.1433 32.2021C91.2022 32.6941 91.7102 32.7957 92.0898 32.8759C92.239 32.9099 92.3913 32.9278 92.5443 32.9293C92.6505 32.9426 92.7582 32.9237 92.8536 32.8751C92.9489 32.8265 93.0274 32.7504 93.079 32.6566C93.2637 32.1855 93.3981 31.6962 93.4801 31.1968C93.4855 31.1719 93.4854 31.146 93.4799 31.1211C93.4744 31.0962 93.4635 31.0728 93.448 31.0525" fill="#C8C7CC"/>
<path d="M120.788 32.6727C120.512 32.3372 120.179 32.0531 119.805 31.8332C119.67 31.7533 119.543 31.662 119.425 31.5604L119.361 31.5123C119.284 31.4487 119.187 31.4146 119.088 31.4161C118.914 31.4367 118.749 31.5037 118.61 31.61C118.471 31.7163 118.362 31.858 118.297 32.0203C118.297 32.2449 118.612 32.6459 119.029 33.1486L119.12 33.2502C119.2 33.3615 119.303 33.4554 119.42 33.5261C119.538 33.5969 119.669 33.6431 119.805 33.6619C119.925 33.6625 120.045 33.6387 120.156 33.5918C120.267 33.5449 120.368 33.476 120.452 33.3892C120.601 33.2448 120.938 32.8919 120.788 32.6727Z" fill="#C8C7CC"/>
<path d="M122.542 35.5923C122.484 35.4771 122.436 35.3573 122.398 35.234C122.36 35.0575 122.334 34.879 122.318 34.6993C122.298 34.4476 122.246 34.1996 122.163 33.9613C122.103 33.8372 122.009 33.732 121.893 33.6575C121.777 33.5829 121.643 33.5419 121.505 33.5389C121.41 33.5357 121.316 33.5578 121.232 33.6031C120.815 33.8063 120.575 34.0255 120.644 34.4907C120.838 35.0896 121.001 35.6982 121.131 36.3141C121.131 36.4157 121.216 36.7526 121.377 36.7526H121.409L122.596 36.3569C122.649 36.3384 122.693 36.3001 122.719 36.25C122.788 36.0896 122.665 35.8222 122.542 35.5655" fill="#C8C7CC"/>
<path d="M46.0554 32.0203C46.0554 31.9668 45.9913 31.908 45.9538 31.8332C45.863 31.6453 45.7931 31.4481 45.7453 31.245C45.6384 30.8813 45.5475 30.5659 45.1518 30.6193C44.5815 30.7012 44.006 30.7406 43.43 30.737C43.43 30.737 43.2268 30.737 43.1679 30.8706C43.1091 31.0043 43.2535 31.1647 43.4193 31.3145C43.511 31.3938 43.5952 31.4815 43.6706 31.5765C43.7951 31.7801 43.9041 31.9928 43.9968 32.2128C44.1572 32.5818 44.3016 32.8973 44.4727 32.9507C44.5492 32.9722 44.6284 32.983 44.7079 32.9828C45.1834 32.9394 45.6345 32.7529 46.002 32.4481C46.2159 32.2663 46.1463 32.1486 46.0501 31.9829" fill="#C8C7CC"/>
<path d="M18.5011 31.4482H18.4744C18.4051 31.4008 18.3231 31.3755 18.2391 31.3755C18.1552 31.3755 18.0732 31.4008 18.0038 31.4482L17.7097 31.646C17.3669 31.8623 17.0366 32.098 16.7205 32.3518C16.6043 32.4787 16.5329 32.6403 16.5173 32.8117C16.509 32.86 16.5104 32.9094 16.5214 32.9572C16.5324 33.0049 16.5529 33.05 16.5815 33.0898C16.5815 33.0898 16.8595 33.3999 16.913 33.4427C17.0225 33.5401 17.1623 33.5968 17.3087 33.6031C17.4246 33.5976 17.5378 33.5666 17.6402 33.5122C18.1744 33.1174 18.6085 32.6027 18.9075 32.0096C18.9664 31.8332 18.7578 31.6674 18.4958 31.4749" fill="#C8C7CC"/>
<path d="M16.4799 34.1218C16.3569 33.9507 15.9452 33.4694 15.7045 33.4694H15.6511C15.4815 33.543 15.3297 33.6523 15.2061 33.7898C15.0824 33.9272 14.9898 34.0897 14.9345 34.2661C14.849 35.3356 14.8222 35.4746 14.5228 35.8061C14.4372 35.9024 14.3838 36.1163 14.48 36.2125C14.8878 36.3987 15.3145 36.5403 15.7527 36.635C15.8436 36.635 15.9291 36.3676 16.1484 35.6136C16.266 35.2073 16.3943 34.7474 16.5387 34.3303C16.5387 34.3303 16.5387 34.2608 16.4532 34.1218" fill="#C8C7CC"/>
<path d="M61.0063 25.7106C60.9896 25.873 60.9425 26.0308 60.8673 26.1758C60.8439 26.2364 60.8028 26.2887 60.7495 26.3258C60.6961 26.363 60.6329 26.3834 60.5678 26.3843C60.3486 26.3843 60.3647 26.1223 60.3647 26.0902C60.356 25.7434 60.2984 25.3996 60.1935 25.0689C60.0492 24.7374 59.3219 23.807 58.9049 23.8444C58.6694 23.9258 58.4655 24.0792 58.322 24.2829C58.076 24.6037 58.076 24.6411 58.0012 24.6892C57.9263 24.7374 57.8301 24.6892 57.7926 24.5235C57.7338 24.2937 57.7338 24.0528 57.7926 23.823C57.8583 23.5814 57.9516 23.3481 58.0707 23.1279C58.0707 23.1279 58.2899 22.6252 58.3701 22.4969C58.4249 22.403 58.5028 22.3247 58.5964 22.2695C58.69 22.2143 58.7962 22.1839 58.9049 22.1814C59.0274 22.1748 59.1496 22.2011 59.2586 22.2575C59.3676 22.3139 59.4596 22.3984 59.5251 22.5022C59.6615 22.6555 59.7766 22.8263 59.8674 23.0102C59.9955 23.2185 60.1462 23.4122 60.3165 23.5877C60.6104 23.9407 60.8288 24.3501 60.9582 24.7908C61.0302 25.094 61.0411 25.4085 60.9903 25.7159M58.9851 30.3145C58.9697 30.4862 58.9047 30.6497 58.7979 30.7851C58.4841 30.9388 58.1364 31.0106 57.7873 30.9936C57.4932 30.9936 57.3969 30.9402 57.3381 30.8546C57.2793 30.7691 57.3755 30.5498 57.3755 30.5498C57.5899 30.0984 57.9745 29.7503 58.445 29.582C58.5844 29.5284 58.7387 29.5284 58.8781 29.582C59.0867 29.6889 58.9904 30.2183 58.9797 30.2931M51.6433 18.6415C51.6422 18.6777 51.6281 18.7122 51.6035 18.7388C51.5789 18.7653 51.5456 18.782 51.5096 18.7859C51.4562 18.7859 51.4241 18.7859 51.4027 18.6629C51.2952 17.8747 51.0812 17.1048 50.7664 16.3743C50.6852 16.2183 50.5904 16.0697 50.483 15.9305C50.2851 15.6578 50.114 15.4278 50.3065 15.1123C50.3474 15.0601 50.4004 15.0186 50.461 14.9916C50.5216 14.9646 50.5879 14.9528 50.6541 14.9573C50.7258 14.9574 50.7967 14.972 50.8626 15.0001C51.1664 15.2045 51.3998 15.4977 51.531 15.8396C52.0978 16.9946 51.6487 18.6255 51.6433 18.6415ZM67.407 31.6941L66.7439 31.3679C66.0243 30.8742 65.4456 30.2015 65.0649 29.4162C64.8991 29.1221 64.7227 28.8334 64.5302 28.5553C64.3683 28.3614 64.1894 28.1824 63.9954 28.0206C63.8593 27.9188 63.7401 27.7961 63.6425 27.657C62.7659 25.4759 62.1989 23.1829 61.9581 20.8446C61.8564 20.2095 61.6428 19.5976 61.3272 19.0372C60.2245 17.4232 59.0282 15.8752 57.7445 14.4012L57.4878 14.1391L57.4237 14.0696L53.0229 10.4389C52.4855 10.0244 51.8816 9.70432 51.2369 9.4924C50.8032 9.34455 50.3477 9.27045 49.8894 9.27316C49.2907 9.27038 48.697 9.38295 48.1409 9.60469C47.788 9.79185 47.4511 10.0111 47.1196 10.2196C46.573 10.6003 45.98 10.9094 45.355 11.1393C44.8559 11.347 44.3453 11.5255 43.8257 11.6741C42.7868 11.9098 41.8156 12.3798 40.9863 13.0483L40.3927 13.583C39.6441 14.2942 39.5639 14.3744 38.949 14.3744C37.6726 14.3175 36.423 14.7519 35.4572 15.5882C34.7071 16.3482 33.8174 16.9564 32.8371 17.3796C32.3762 17.5202 31.9008 17.6081 31.4201 17.6416C30.9057 17.6672 30.3951 17.7442 29.8961 17.8715C28.8267 18.1121 27.7572 18.9677 26.8214 19.6896C26.5166 19.9249 26.0996 20.2243 25.9124 20.3687L25.5916 20.5665C24.4312 21.2403 23.335 21.8819 21.9341 21.8819H21.8271C21.3123 21.8448 20.8192 21.6595 20.4074 21.3482C19.9956 21.037 19.6827 20.6132 19.5064 20.1281C19.3652 19.5927 19.3716 19.0291 19.5251 18.4971C19.6786 17.9652 19.9733 17.4847 20.378 17.1069C20.7844 16.7005 21.2443 16.3155 21.6934 15.9305C22.3796 15.394 23.0054 14.7844 23.5596 14.1124C23.8195 13.7187 23.9471 13.2525 23.9241 12.7813C23.901 12.3102 23.7284 11.8587 23.4313 11.4923C22.8164 10.8239 21.4528 10.487 20.9341 10.364H20.8432L20.6507 10.3319C20.3245 10.2677 20.0144 10.2196 19.6936 10.1448C18.8808 9.92553 18.2445 9.29455 17.5547 8.9042C17.2854 9.32088 17.1665 9.81706 17.2178 10.3105C17.3271 10.8857 17.5698 11.4272 17.9264 11.8916C18.2831 12.3559 18.7436 12.7301 19.2711 12.9841L19.3995 13.0376C19.7098 13.1556 20.0411 13.2084 20.3727 13.1927H20.7577C20.9729 13.1864 21.1881 13.2043 21.3993 13.2462C21.5099 13.2784 21.6087 13.342 21.6837 13.4293C21.7587 13.5167 21.8067 13.624 21.8218 13.7381C21.8221 13.8185 21.8003 13.8974 21.7588 13.9663C21.7173 14.0351 21.6577 14.0912 21.5865 14.1285C21.3993 14.2621 21.2229 14.4065 21.0518 14.5562C20.1434 15.25 19.3101 16.0367 18.5653 16.9037C17.5921 17.9731 17.5493 19.7805 18.0306 20.9676C18.3351 21.672 18.8204 22.2834 19.4374 22.7398C20.0544 23.1962 20.781 23.4813 21.5437 23.5663C21.7825 23.6045 22.0238 23.6242 22.2656 23.6251C23.0244 23.5884 23.7754 23.4554 24.5007 23.2295H24.5649C24.597 23.2295 24.6612 23.2295 24.6719 23.3899C24.6719 23.716 24.7093 24.085 24.7253 24.4593C24.7574 25.0315 24.7788 25.5769 24.8216 25.8015C24.9491 26.3328 25.1282 26.8503 25.3563 27.3468C25.4155 27.4707 25.4638 27.5996 25.5007 27.7318C25.5346 27.8408 25.5386 27.9568 25.5122 28.0678C25.4859 28.1788 25.4302 28.2807 25.351 28.3628C24.8003 28.7968 24.1644 29.1102 23.4848 29.2825C23.1532 29.3253 22.8003 29.3467 22.5437 29.3627H22.2549C22.1385 29.3756 22.0295 29.4263 21.9448 29.5071C21.7147 29.8487 21.5346 30.2214 21.41 30.614C21.2871 30.9188 21.1694 31.2343 21.0411 31.4963C20.6566 32.0348 20.1389 32.4641 19.5385 32.7422L19.1214 32.9935C18.9079 33.3531 18.6491 33.6837 18.3514 33.9774C18.1162 34.163 17.8275 34.268 17.5279 34.2768C17.1358 34.8192 16.8875 35.452 16.8061 36.1163L16.7419 36.4157V36.5066H16.7954C17.0365 36.5378 17.2757 36.5824 17.5119 36.6403C17.8359 36.7209 18.1675 36.7674 18.5011 36.7794C18.7875 36.7863 19.071 36.72 19.3246 36.5868C19.7099 36.3681 20.0138 36.0304 20.1909 35.6243C20.3089 35.3769 20.46 35.1467 20.64 34.9399C20.695 34.8768 20.7634 34.8267 20.8401 34.7934C20.9169 34.7601 21.0002 34.7444 21.0839 34.7474C21.2653 34.7577 21.4449 34.79 21.6186 34.8437C21.7753 34.8921 21.9365 34.9243 22.0998 34.9399C22.7867 34.9176 23.4452 34.661 23.966 34.2127C24.1211 34.079 24.2815 33.94 24.4312 33.7956C24.6604 33.5691 24.9091 33.3633 25.1745 33.1807C25.5438 33.0212 25.9435 32.9445 26.3455 32.9561C26.916 32.978 27.4833 33.0514 28.0406 33.1753C28.3066 33.241 28.5794 33.2751 28.8534 33.2769C29.2994 33.2829 29.7394 33.1743 30.1314 32.9614C30.5645 32.7154 31.003 32.4855 31.3506 32.3037L31.8853 32.0203C32.4698 31.5806 32.9349 31.0016 33.2381 30.3359C33.4199 29.967 33.7354 29.1756 33.7408 29.1702V29.1328L33.0296 28.5981L32.9921 28.6462C32.7575 29.0508 32.4948 29.4385 32.2061 29.8066C30.9174 31.5284 28.8427 31.7316 27.1744 31.7316H26.8268C25.8907 31.6887 24.9567 31.854 24.0922 32.2155C23.2276 32.577 22.454 33.1258 21.8271 33.8223C21.818 33.8364 21.8061 33.8485 21.7921 33.8579C21.7781 33.8672 21.7624 33.8736 21.7458 33.8766C21.7293 33.8796 21.7123 33.8792 21.696 33.8753C21.6796 33.8715 21.6642 33.8644 21.6507 33.8544C21.6401 33.8318 21.6347 33.8072 21.6347 33.7822C21.6347 33.7573 21.6401 33.7326 21.6507 33.71C21.6717 33.5873 21.7152 33.4694 21.779 33.3625C23.0837 31.5177 25.3028 31.2236 27.0941 31.2236C28.1771 31.1955 29.2424 30.9424 30.2223 30.4803C31.2546 29.869 32.0298 28.9038 32.404 27.7639C32.5875 27.1261 32.7234 26.4755 32.8103 25.8175C32.8628 25.2893 32.9449 24.7644 33.0563 24.2454C33.0666 24.214 33.0867 24.1866 33.1136 24.1673C33.1405 24.1481 33.1729 24.138 33.206 24.1385H33.2542C33.3237 24.1385 33.452 24.2026 33.452 24.3042C33.2702 25.3202 33.0242 26.7105 33.4894 27.8762C33.7087 28.3307 34.1685 28.5553 34.9011 28.5553C35.3694 28.5404 35.8359 28.4903 36.2967 28.4056C36.6401 28.3458 36.9863 28.3048 37.3341 28.2826H37.7138C38.2828 28.304 38.8486 28.3792 39.4035 28.5072C39.8873 28.6179 40.3789 28.6912 40.874 28.7264C40.9684 28.7211 41.063 28.7211 41.1574 28.7264H41.6921C42.0145 28.7646 42.3404 28.693 42.6172 28.5232C42.7776 28.3895 42.7188 28.2077 42.6546 27.9885V27.9511C42.6436 27.9055 42.6293 27.8609 42.6118 27.8174C42.5156 27.5019 42.3659 27.026 42.6118 26.8121C42.6491 26.7805 42.6966 26.7634 42.7455 26.764C42.7693 26.7613 42.7933 26.7667 42.8137 26.7793C42.834 26.7919 42.8496 26.811 42.8578 26.8335C42.8899 26.9297 42.9166 27.0206 42.938 27.1115C43.0278 27.5063 43.1852 27.8826 43.4032 28.2238C44.0331 28.9687 44.8105 29.575 45.6865 30.0044C46.0791 30.2359 46.4139 30.5535 46.6659 30.9333C46.9178 31.3131 47.0803 31.7451 47.1409 32.1968C47.1409 32.662 46.6918 32.9828 46.3549 33.186C45.7801 33.4907 45.1482 33.6728 44.4994 33.7207C44.2674 33.7047 44.0456 33.6189 43.8631 33.4748C43.3284 33.0042 43.4086 32.8384 43.077 32.277C42.9003 31.9709 42.702 31.6778 42.4835 31.4C42.3243 31.2286 42.1257 31.0985 41.9048 31.0212C41.684 30.9438 41.4476 30.9215 41.2162 30.9562C40.6764 31.0087 40.1405 31.0963 39.612 31.2182C39.5567 31.2287 39.5046 31.2521 39.4601 31.2865C39.4155 31.3208 39.3796 31.3652 39.3554 31.4161C39.3314 31.4776 39.3219 31.5438 39.3274 31.6096C39.333 31.6754 39.3535 31.7391 39.3874 31.7957C39.6815 32.3304 39.9756 32.8117 40.2804 33.325L40.4141 33.5496C40.4568 33.6019 40.5121 33.6425 40.5747 33.6678C40.6374 33.693 40.7053 33.702 40.7724 33.694H41.0023C41.0896 33.6886 41.1771 33.6886 41.2643 33.694C41.3632 33.6829 41.4633 33.6956 41.5563 33.7309C41.6493 33.7662 41.7325 33.8232 41.799 33.8972C41.8948 34.0353 41.9805 34.18 42.0557 34.3303C42.2337 34.713 42.4907 35.0538 42.8097 35.3302C43.1573 35.6198 43.598 35.7737 44.0502 35.7634C44.2552 35.765 44.4591 35.7343 44.6545 35.6725C46.0282 35.2821 47.362 34.7629 48.6382 34.1218H49.3387C49.7804 34.1468 50.2149 34.0013 50.5525 33.7154C50.9539 33.1388 51.3114 32.5328 51.6219 31.9027C51.756 31.6662 51.8264 31.3991 51.8264 31.1273C51.8264 30.8555 51.756 30.5884 51.6219 30.352C51.0863 29.5719 50.6548 28.7253 50.3386 27.8334C50.2423 27.807 50.1477 27.7748 50.0552 27.7372C49.8541 27.6414 49.636 27.5869 49.4135 27.5768H49.3814C49.2779 27.5666 49.1736 27.5846 49.0795 27.6289C48.9854 27.6731 48.905 27.7419 48.8467 27.8281L50.2691 30.6621C50.3987 30.9063 50.4492 31.1847 50.4134 31.4588C50.1838 32.0504 49.8466 32.5943 49.4189 33.063C49.3806 33.0938 49.3341 33.1124 49.2852 33.1165C49.2852 33.1165 49.1943 33.1165 49.2424 32.9293C49.4122 32.298 49.5003 31.6474 49.5044 30.9936C49.1261 30.1167 48.6791 29.271 48.1676 28.4644V28.427C47.9442 28.1353 47.8137 27.7832 47.7933 27.4163C47.8029 27.3382 47.8346 27.2644 47.8849 27.2037C47.9351 27.1431 48.0017 27.0981 48.0767 27.0741C48.2781 27.0093 48.4835 26.9575 48.6916 26.919C49.2264 26.8014 49.7611 26.6838 49.9482 26.3843C50.5538 25.4353 50.9528 24.3695 51.1193 23.2562C51.1193 23.2027 51.1674 23.0958 51.2476 23.0958C51.3278 23.0958 51.3492 23.0958 51.3653 23.2241C51.4711 23.8362 51.4547 24.4632 51.3171 25.0689C51.1794 25.6746 50.9232 26.2471 50.5632 26.7533C50.5113 26.838 50.4923 26.9389 50.5097 27.0367C50.5312 27.1113 50.5786 27.1757 50.6434 27.2185C50.9214 27.4163 51.9588 27.304 52.7021 26.9137C53.2526 26.9059 53.801 26.8414 54.3383 26.7212L54.8249 26.6356C54.8731 26.6588 54.9111 26.6987 54.9319 26.7479C54.4875 27.2476 54.1945 27.8633 54.087 28.5232C53.964 28.6462 53.8303 28.7692 53.702 28.8868C53.2207 29.3306 52.7021 29.8172 52.6807 30.4482C52.6785 30.4777 52.6822 30.5074 52.6915 30.5355C52.7008 30.5635 52.7156 30.5895 52.7349 30.6119C52.7543 30.6342 52.7779 30.6525 52.8044 30.6658C52.8309 30.679 52.8597 30.6868 52.8892 30.6888C52.977 30.6841 53.0628 30.6604 53.1405 30.6193C53.213 30.5801 53.2935 30.5581 53.3758 30.5552C53.4124 30.5629 53.4457 30.5821 53.4706 30.61C53.4956 30.6379 53.5111 30.673 53.5148 30.7102L52.9801 31.5123C52.9027 31.6724 52.8595 31.8467 52.853 32.0244C52.8466 32.202 52.8771 32.3791 52.9427 32.5443C53.0069 32.7368 52.9801 32.8866 53.0282 33.0791C53.121 33.2665 53.2667 33.4226 53.4473 33.5281C53.6278 33.6336 53.8354 33.6838 54.0442 33.6726C54.7299 33.6021 55.3998 33.4215 56.028 33.1379L56.3649 33.0202C57.2213 32.7095 58.148 32.6464 59.0385 32.8384C59.9208 32.785 60.5839 32.2021 61.2202 31.6353C61.5562 31.6768 61.8619 31.8499 62.0704 32.1166C62.5205 32.6159 63.0745 33.0106 63.6934 33.273C64.3124 33.5353 64.9812 33.659 65.6531 33.6352H65.9686C66.1183 33.6031 66.1557 33.5282 66.1611 33.4373C66.1537 33.3698 66.1279 33.3056 66.0863 33.2518C66.0448 33.198 65.9893 33.1567 65.9258 33.1325L65.1183 32.7048C64.4713 32.293 63.7655 31.7957 63.5676 31.1434C63.3545 30.482 63.0599 29.8498 62.6907 29.2611L62.5035 28.9831C62.3801 28.8163 62.2744 28.6371 62.1881 28.4484C63.0704 28.7692 63.5623 29.4216 64.1612 30.507C64.4389 30.9813 64.827 31.3816 65.2924 31.6739C65.7579 31.9662 66.287 32.1419 66.8348 32.1861C66.975 32.1878 67.1149 32.1734 67.2519 32.1433C67.3038 32.136 67.352 32.1124 67.3895 32.0759C67.427 32.0393 67.4518 31.9918 67.4604 31.9401C67.4725 31.8981 67.4695 31.8531 67.452 31.8131C67.4344 31.773 67.4033 31.7404 67.3642 31.7209" fill="#C8C7CC"/>
<path d="M88.2238 14.3156L87.689 14.8022C87.0486 15.3373 86.479 15.9518 85.994 16.631C85.7995 16.9164 85.6313 17.2189 85.4913 17.5346C85.4855 17.5621 85.4709 17.5869 85.4496 17.6053C85.4284 17.6236 85.4017 17.6345 85.3737 17.6362C85.3371 17.6313 85.3033 17.6144 85.2774 17.5881C85.2011 17.1302 85.2453 16.6602 85.4058 16.2246C85.8587 15.1533 86.5989 14.228 87.5447 13.551C87.6589 13.481 87.7903 13.444 87.9243 13.444C88.0084 13.4383 88.0923 13.4583 88.1648 13.5013C88.2374 13.5442 88.2952 13.6081 88.3307 13.6846C88.3885 13.7954 88.4057 13.9228 88.3793 14.0449C88.353 14.167 88.2847 14.276 88.1863 14.353M80.8071 24.7427C80.768 24.8103 80.7066 24.8622 80.6335 24.8895C80.5603 24.9168 80.4799 24.9178 80.4061 24.8924C80.2572 24.8071 80.1378 24.6784 80.0639 24.5235C79.9676 24.3524 79.8821 24.208 79.6575 24.224H79.6201C79.4218 24.249 79.2355 24.3328 79.0853 24.4647C79.0051 24.5235 78.6843 24.7695 78.6041 24.839C78.1422 25.1416 77.7941 25.5893 77.6148 26.1116C77.5876 26.2007 77.5679 26.2919 77.556 26.3843C77.556 26.474 77.5364 26.5626 77.4985 26.6439C77.4606 26.7252 77.4054 26.7972 77.3368 26.8549H77.2726C77.2025 26.8537 77.1348 26.8293 77.0801 26.7854C77.0517 26.7643 77.0287 26.7369 77.0129 26.7053C76.9971 26.6737 76.989 26.6389 76.9892 26.6036C76.9432 26.185 76.9967 25.7614 77.1454 25.3674C77.2941 24.9735 77.5337 24.6202 77.8448 24.3363C78.2418 23.9909 78.6004 23.6037 78.9142 23.1813C79.0639 22.9781 79.2244 22.7749 79.3848 22.5878C79.5452 22.4006 79.7163 22.5878 80.0585 22.9354C80.3716 23.3728 80.6369 23.8424 80.8499 24.3363C80.8764 24.397 80.8901 24.4626 80.8901 24.5288C80.8901 24.5951 80.8764 24.6606 80.8499 24.7213M80.4649 30.9241C80.4138 30.9948 80.3447 31.0505 80.2647 31.0853C80.1848 31.1201 80.0969 31.1327 80.0104 31.122C79.8308 31.1227 79.6547 31.0727 79.5024 30.9776C79.3544 30.8625 79.235 30.7148 79.1534 30.546C79.0718 30.3772 79.0302 30.1919 79.0319 30.0044C79.0218 29.9453 79.0291 29.8846 79.0528 29.8295C79.0765 29.7745 79.1157 29.7275 79.1655 29.6943C79.2219 29.6609 79.2879 29.6477 79.3527 29.6568C79.7099 29.6781 80.0443 29.8396 80.2831 30.106C80.2831 30.106 80.6521 30.5979 80.4703 30.9241M120.452 36.5441C120.362 35.8191 120.162 35.1121 119.858 34.448V34.4052H119.821C119.136 34.448 118.714 33.8705 118.302 33.3357C118.181 33.1649 118.05 33.0006 117.912 32.8438C117.71 32.616 117.49 32.405 117.254 32.2128C117.047 32.0652 116.867 31.8846 116.719 31.6781C116.597 31.3642 116.495 31.0427 116.414 30.7156C116.345 30.4536 116.275 30.1809 116.217 30.0258C116.199 29.9915 116.185 29.9557 116.174 29.9188C116.051 29.5873 115.901 29.1756 115.468 29.1007C115.249 29.074 115.024 29.0579 114.805 29.0526C114.521 29.0746 114.236 29.0338 113.97 28.9331C113.704 28.8323 113.463 28.6741 113.265 28.4697C113.152 28.2923 113.092 28.0864 113.092 27.8762C113.092 27.666 113.152 27.4601 113.265 27.2827C113.335 27.1219 113.393 26.9555 113.436 26.7854C113.671 26.0326 113.715 25.2333 113.564 24.4593C113.538 24.3631 113.505 24.2561 113.468 24.1545C113.359 23.9001 113.315 23.6227 113.34 23.3471C113.361 23.2976 113.399 23.2566 113.446 23.2305C113.494 23.2044 113.548 23.1946 113.602 23.2027C113.72 23.2098 113.837 23.2332 113.949 23.2722L114.174 23.3257C114.563 23.4217 114.961 23.4755 115.361 23.4861C116.065 23.4833 116.761 23.3397 117.409 23.0637C118.596 22.4862 119.778 21.1815 119.714 19.5773C119.553 17.9464 118.548 16.3689 116.628 14.7648L116.473 14.6204C116.222 14.4119 115.938 14.1552 115.938 13.9199C115.938 13.6846 116.532 13.5456 116.906 13.46L117.142 13.4066H117.238C117.724 13.3045 118.19 13.1239 118.617 12.8719C119.981 11.9521 119.928 10.3266 119.778 9.43358V9.34802C119.751 9.23038 119.719 9.08601 119.612 9.08601C119.573 9.08825 119.537 9.1055 119.51 9.13413L119.377 9.25177C119.216 9.41474 119.036 9.55831 118.842 9.67955C118.384 9.91992 117.889 10.0808 117.377 10.1555C117.049 10.216 116.726 10.2982 116.409 10.4014C115.051 10.8666 114.201 11.5564 113.901 12.4494C113.828 12.7183 113.81 12.9994 113.85 13.2754C113.889 13.5513 113.985 13.8162 114.131 14.0536C114.625 14.7581 115.199 15.4023 115.842 15.9733C116.821 16.9144 117.837 17.8876 118.077 19.1816C118.134 19.5693 118.073 19.9651 117.903 20.3179C117.732 20.6706 117.46 20.964 117.12 21.1601C116.666 21.4164 116.15 21.5457 115.628 21.5344C114.902 21.5272 114.188 21.3437 113.548 20.9997C112.748 20.5827 111.976 20.1129 111.238 19.5933C110.145 18.7862 108.944 18.1347 107.672 17.6576C107.101 17.4288 106.508 17.262 105.902 17.1603C105.03 17.0584 104.196 16.7485 103.469 16.2567C103.228 16.1016 102.982 15.9251 102.752 15.7594C102.147 15.256 101.452 14.8714 100.704 14.6257C100.437 14.5447 100.163 14.4874 99.8861 14.4546C99.4786 14.4269 99.084 14.3003 98.7364 14.0857L98.2498 13.7381C97.675 13.2881 97.0633 12.8874 96.4211 12.5403C95.3215 12.0438 94.1649 11.6846 92.9775 11.4709C92.5965 11.3441 92.2714 11.0889 92.0577 10.749C91.891 10.5226 91.6929 10.3209 91.4695 10.1501C90.5017 9.38011 89.6194 8.86677 88.4858 8.86677H88.1649C87.5424 8.97396 86.9696 9.2753 86.5287 9.72768C85.3951 10.7276 84.1759 11.6046 82.9942 12.4548C81.1491 13.7053 79.4347 15.1385 77.8769 16.7326C76.3689 18.3367 75.8342 20.2778 75.2995 22.1814L75.0589 23.0209C74.9145 23.5556 74.7755 24.0904 74.6525 24.5983C73.952 27.4056 73.2301 30.2076 70.4228 32.0257C70.3719 32.0596 70.3358 32.1116 70.3219 32.1712C70.308 32.2309 70.3173 32.2935 70.348 32.3465C70.3795 32.3947 70.4267 32.4305 70.4816 32.4481C70.9142 32.57 71.3729 32.5636 71.802 32.4297C72.231 32.2959 72.612 32.0403 72.8986 31.6941C73.6312 30.8332 74.0001 30.0044 74.8503 29.0954C74.8824 29.0954 74.9787 28.9777 75.0535 28.9991C75.1284 29.0205 75.1391 29.0526 75.1123 29.1542C74.9911 29.5134 74.8104 29.8496 74.5776 30.1488C74.3176 30.4671 74.1166 30.8292 73.9841 31.2182C73.7114 32.0257 72.9627 32.6727 72.2997 33.2448C72.2396 33.2871 72.1841 33.3355 72.1339 33.3892C72.0698 33.4694 72.0751 33.5015 72.0751 33.5015C72.0751 33.6779 72.1981 33.7849 72.4815 33.8009C74.0857 33.8009 75.1551 32.6834 76.2513 31.6032C76.2739 31.5795 76.3014 31.5609 76.3318 31.5489C76.3623 31.5369 76.3951 31.5317 76.4278 31.5337C76.4851 31.5153 76.5468 31.5153 76.6042 31.5337C76.7339 31.6286 76.8556 31.7342 76.9678 31.8492C77.2926 32.1969 77.7042 32.4516 78.1603 32.5871C78.691 32.5017 79.227 32.4534 79.7644 32.4427C79.9068 32.432 80.0498 32.432 80.1922 32.4427C80.7644 32.6139 81.3365 32.8331 81.8926 33.0363C82.283 33.1807 82.6787 33.3357 83.0904 33.4748C83.6251 33.4748 83.9888 32.94 84.2615 32.539C84.3578 32.2455 84.3578 31.9288 84.2615 31.6353C84.2188 31.4603 84.1972 31.2807 84.1973 31.1006C84.3174 31.0632 84.4461 31.0632 84.5663 31.1006C84.6887 31.1166 84.8127 31.1166 84.9352 31.1006C85.0171 31.0814 85.0881 31.0309 85.1331 30.9599C85.1781 30.8889 85.1935 30.8031 85.1758 30.7209C85.0573 30.2646 84.8442 29.8383 84.5502 29.4697C84.32 29.1552 84.1396 28.8071 84.0155 28.4377C83.8069 27.9621 83.503 27.5344 83.1225 27.1811C82.7116 26.7921 82.4109 26.3014 82.2509 25.7587C82.2509 25.7587 82.2135 25.6464 82.2509 25.6036C82.2883 25.5608 82.4006 25.6036 82.4006 25.6036C82.5868 25.7417 82.7653 25.8899 82.9353 26.0474C83.4897 26.5824 84.1761 26.9607 84.9245 27.1436C85.6547 27.2398 86.3918 27.272 87.1276 27.2399C87.2047 27.2331 87.276 27.1961 87.3261 27.1371C87.3761 27.078 87.4009 27.0016 87.3949 26.9244V26.8709C87.0669 26.2167 86.8019 25.5327 86.6035 24.8283C86.282 23.8201 86.2304 22.7452 86.4538 21.7108C86.4612 21.6707 86.4823 21.6344 86.5135 21.608C86.5448 21.5817 86.5841 21.567 86.6249 21.5665C86.6835 21.5898 86.7346 21.6284 86.7732 21.6783C86.8117 21.7281 86.8363 21.7874 86.8442 21.8499V21.9942C86.9511 23.4968 87.0474 24.9138 87.9671 26.1223C88.2076 26.4632 88.5292 26.7388 88.9029 26.9244C89.1543 27.0411 89.3826 27.2023 89.5766 27.4003C89.6716 27.5319 89.73 27.6864 89.746 27.8479C89.7619 28.0094 89.7349 28.1723 89.6675 28.32L88.5446 29.983C88.2696 30.3474 88.063 30.7587 87.935 31.1968C87.8762 31.6011 87.8762 32.0117 87.935 32.416V32.5123C87.8977 32.4907 87.8693 32.4566 87.8548 32.416C87.6475 32.1222 87.5111 31.7844 87.4564 31.4291C87.4017 31.0737 87.43 30.7105 87.5393 30.368C87.6837 30.0204 88.6088 28.7211 88.8708 28.2933C88.9563 28.1649 89.0258 28.0206 88.951 27.9297C88.6651 27.7243 88.3389 27.5822 87.9938 27.5126H87.9617C87.8073 27.5772 87.6791 27.6922 87.5981 27.8388C87.5816 27.8693 87.5619 27.898 87.5393 27.9243L86.149 30.4482L86.117 30.5391C86.0161 30.7826 85.9882 31.0501 86.0367 31.3091C86.1116 31.6888 86.2346 32.0952 86.3201 32.3786L86.3897 32.6245C86.4682 33.0043 86.615 33.3666 86.8228 33.694C86.8817 33.7633 86.9557 33.8181 87.0391 33.8543C87.1226 33.8905 87.2132 33.907 87.304 33.9025C87.4118 33.9025 87.5192 33.8917 87.6249 33.8705C87.7903 33.833 87.9621 33.833 88.1275 33.8705C88.3299 33.9398 88.5069 34.0684 88.6355 34.2394C88.7723 34.4209 88.9577 34.56 89.1702 34.6405C89.598 34.7848 90.0525 34.9025 90.4856 35.0201C91.0804 35.1634 91.666 35.342 92.2395 35.5548C92.5602 35.6736 92.8978 35.7404 93.2395 35.7527C93.5812 35.7589 93.9117 35.6302 94.1592 35.3944C94.5506 35.0831 94.8072 34.6332 94.8757 34.1378C94.9613 33.6619 95.1217 33.6031 95.4693 33.6031C95.5912 33.6124 95.7137 33.5942 95.8275 33.5496C96.2237 33.2304 96.5434 32.8266 96.7633 32.3679C96.8318 32.2411 96.9068 32.118 96.9879 31.9989C97.0573 31.9064 97.0948 31.7938 97.0948 31.6781C97.0948 31.5911 97.0606 31.5075 96.9996 31.4455C96.9386 31.3835 96.8556 31.348 96.7686 31.3466H94.7741C94.1645 31.384 93.8972 31.9668 93.7047 32.4855C93.6303 32.6698 93.5428 32.8485 93.4427 33.0202C93.3557 33.1698 93.2282 33.2918 93.075 33.3722C92.9218 33.4526 92.7489 33.4882 92.5764 33.4748C92.4099 33.4543 92.2454 33.4203 92.0845 33.3732C91.2824 33.1753 90.4803 32.9721 90.1167 32.1807C90.0809 32.0698 90.0729 31.9519 90.0935 31.8372C90.114 31.7225 90.1623 31.6146 90.2343 31.523C90.7161 30.9476 91.2534 30.421 91.8385 29.9509C92.2633 29.8475 92.6633 29.6604 93.0149 29.4006C93.3666 29.1407 93.6629 28.8134 93.8865 28.4377C93.9713 28.3053 94.0361 28.1611 94.079 28.0099C94.1203 27.7841 94.2419 27.5809 94.4212 27.4377C94.5549 27.3736 94.6565 27.3949 94.6832 27.5072C94.7212 27.9242 94.6396 28.3434 94.4479 28.7157C94.4159 28.8066 94.3784 28.8975 94.3517 28.9831V29.0579H94.4159C94.6351 29.0579 94.865 29.09 95.095 29.09C95.8932 29.0697 96.6878 28.9766 97.4691 28.812C98.2158 28.6543 98.974 28.5577 99.7364 28.5232H99.9984C100.362 28.5232 100.704 28.5553 101.041 28.5874C101.378 28.6195 101.715 28.6462 102.057 28.6462H102.405C103.437 28.5981 104.185 28.1115 104.41 27.3896C104.624 26.7586 104.602 25.6678 104.34 24.1438V23.9834C104.337 23.9533 104.343 23.9228 104.357 23.8961C104.371 23.8693 104.394 23.8476 104.421 23.8337C104.511 23.7802 104.618 23.8337 104.667 23.9567C105.014 24.9998 105.26 26.0743 105.399 27.165C105.567 28.1006 105.932 28.9899 106.469 29.7745C106.838 30.317 107.336 30.7593 107.918 31.0617C108.501 31.3641 109.149 31.5171 109.805 31.507C110.128 31.4943 110.449 31.4604 110.768 31.4054C110.919 31.3946 111.071 31.3946 111.222 31.4054C112.08 31.4033 112.926 31.6014 113.694 31.9838C114.462 32.3663 115.129 32.9225 115.644 33.6084C115.65 33.6193 115.652 33.6312 115.652 33.6432C115.652 33.6552 115.65 33.6671 115.644 33.678C115.637 33.7092 115.618 33.7364 115.591 33.7542C115.564 33.772 115.532 33.7791 115.5 33.7742L115.35 33.6566C114.361 32.8866 113.334 32.0952 112.051 31.9347C111.812 31.8966 111.571 31.8769 111.329 31.8759C110.971 31.8856 110.614 31.9142 110.26 31.9615C109.919 32.005 109.576 32.03 109.233 32.0364C108.836 32.0423 108.442 31.9715 108.073 31.8278C106.597 31.3466 105.399 29.6354 104.998 28.582C104.984 28.553 104.962 28.5285 104.934 28.5115C104.907 28.4945 104.875 28.4856 104.843 28.4858C104.796 28.4849 104.749 28.4979 104.709 28.5232C104.538 28.6355 104.511 28.6943 104.485 28.7959C104.518 29.1904 104.58 29.5819 104.672 29.967C104.864 30.7744 104.998 31.7209 106.19 32.4962C106.726 32.939 107.37 33.2291 108.057 33.3357C108.273 33.3651 108.493 33.3651 108.709 33.3357C109.087 33.2514 109.472 33.2066 109.859 33.202C111.117 33.2182 112.339 33.6298 113.35 34.3784C113.531 34.4794 113.699 34.6035 113.848 34.7474C114.061 34.9499 114.31 35.1129 114.58 35.2286C114.751 35.2959 114.932 35.3322 115.115 35.3356C115.446 35.3312 115.767 35.2248 116.035 35.0308C116.157 34.9679 116.293 34.9332 116.43 34.9292C116.805 34.9292 117.013 35.2287 117.281 35.5976C117.45 35.8522 117.647 36.0871 117.869 36.2981C118.033 36.4358 118.223 36.5398 118.428 36.604C118.632 36.6682 118.848 36.6915 119.061 36.6724H119.682C119.861 36.6824 120.04 36.6698 120.216 36.635C120.278 36.6295 120.339 36.6188 120.398 36.6029V36.5441H120.452Z" fill="#C8C7CC"/>
</svg>
