<svg width="181" height="39" viewBox="0 0 181 39" fill="none" xmlns="http://www.w3.org/2000/svg">
<path d="M169.946 12.1341C171.707 10.3732 172.517 8.04884 172.341 5.72449L178.75 12.1341C181.18 14.5641 181.18 18.5084 178.75 20.9384L168.467 31.2219C166.037 33.6519 162.093 33.6519 159.663 31.2219C157.233 28.7919 157.233 24.8475 159.663 22.4175L169.946 12.1341Z" fill="#797891"/>
<path d="M168.467 1.85058C170.897 4.28058 170.897 8.22492 168.467 10.6549L164.065 15.0571L159.663 10.6549C157.233 8.22492 157.233 4.28058 159.663 1.85058C162.093 -0.579424 166.037 -0.579424 168.467 1.85058Z" fill="#797891"/>
<path d="M23.8643 8.22492C18.1239 8.22492 13.4752 12.8736 13.4752 18.6141C13.4752 24.3545 18.1591 29.0032 23.8643 29.0032C29.5695 29.0032 34.2534 24.3545 34.2534 18.6141C34.2534 12.8736 29.6047 8.22492 23.8643 8.22492ZM23.8643 24.8475C20.413 24.8475 17.6308 22.0654 17.6308 18.6141C17.6308 15.1627 20.4482 12.3806 23.8643 12.3806C27.2804 12.3806 30.0978 15.1627 30.0978 18.6141C30.0978 22.0654 27.3156 24.8475 23.8643 24.8475ZM97.3982 8.22492C95.0739 8.22492 92.8904 8.99971 91.1647 10.3027V4.06927C91.1647 2.9071 90.2491 1.99145 89.0869 1.99145H87.0091V29.0032H91.1647V26.9254C92.8904 28.2284 95.0739 29.0032 97.3982 29.0032C103.139 29.0032 107.787 24.3545 107.787 18.6141C107.787 12.8736 103.139 8.22492 97.3982 8.22492ZM97.3982 24.8475C93.9469 24.8475 91.1647 22.0654 91.1647 18.6141C91.1647 15.1627 93.9469 12.3806 97.3982 12.3806C100.85 12.3806 103.632 15.1627 103.632 18.6141C103.632 22.0654 100.85 24.8475 97.3982 24.8475ZM78.3104 8.22492H82.466V27.7706C82.466 33.4758 77.9582 38.2301 72.253 38.3358C66.4421 38.4414 61.6878 33.7575 61.6878 27.9467H64.0121C64.963 27.9467 65.773 28.5806 66.0195 29.4962C66.7239 32.2432 69.2595 34.2506 72.253 34.1801C75.6339 34.0745 78.3104 31.2219 78.3104 27.8058V24.8123C76.5495 26.1154 74.366 26.8901 72.0065 26.8901C66.266 26.8549 61.6878 22.0654 61.6878 16.3249V8.22492H63.7656C64.9278 8.22492 65.8434 9.14058 65.8434 10.3027V16.3954C65.8434 19.7762 68.4847 22.6641 71.9008 22.7697C75.4226 22.8754 78.3104 20.0228 78.3104 16.5362V8.22492ZM57.9547 18.6141V29.0032H55.8769C54.7147 29.0032 53.7991 28.0875 53.7991 26.9254V18.6141C53.7991 15.1627 51.0169 12.3806 47.5656 12.3806C44.1143 12.3806 41.3321 15.1627 41.3321 18.6141V29.0032H37.1765V8.22492H41.3321V10.3027C43.0578 8.99971 45.2413 8.22492 47.5656 8.22492C53.306 8.22492 57.9547 12.8736 57.9547 18.6141ZM11.0099 24.8475V29.0032C5.26952 29.0032 0.620819 24.3545 0.620819 18.6141V4.06927H2.69865C3.86082 4.06927 4.77647 4.98492 4.77647 6.1471V8.22492H11.0099V12.3806H4.77647V18.6141C4.77647 22.0301 7.55865 24.8475 11.0099 24.8475ZM138.11 12.3806V18.6141C138.11 22.0654 140.892 24.8475 144.343 24.8475V29.0032C138.603 29.0032 133.954 24.3545 133.954 18.6141V4.06927H136.032C137.194 4.06927 138.11 4.98492 138.11 6.1471V8.22492H144.343V12.3806H138.11ZM130.749 20.058C130.82 19.6001 130.855 19.1071 130.855 18.6141C130.855 12.7327 125.995 8.01362 120.078 8.22492C114.69 8.43623 110.323 12.8032 110.112 18.1914C109.9 24.108 114.62 28.968 120.501 28.968C123.882 28.968 126.875 27.348 128.742 24.8827L127.474 24.1432C126.241 23.4388 124.692 23.4036 123.424 24.0727C122.403 24.6362 121.205 24.918 119.937 24.7771C117.261 24.5306 115.042 22.5936 114.408 20.0227L130.749 20.058ZM121.1 12.4158C123.494 12.6623 125.537 14.3175 126.312 16.5362H114.584C115.5 13.9301 118.106 12.0988 121.1 12.4158Z" fill="#797891"/>
</svg>
