<svg width="42" height="46" viewBox="0 0 42 46" fill="none" xmlns="http://www.w3.org/2000/svg">
<g clip-path="url(#clip0_2_1988)">
<g clip-path="url(#clip1_2_1988)">
<path d="M18.0201 25.1025C24.6475 25.1025 30.0201 19.73 30.0201 13.1025C30.0201 6.47512 24.6475 1.10254 18.0201 1.10254C11.3927 1.10254 6.02008 6.47512 6.02008 13.1025C6.02008 19.73 11.3927 25.1025 18.0201 25.1025Z" stroke="#E534BA" stroke-width="2.00497"/>
<path d="M1.02006 44.1025C0.977298 41.2292 2.0772 38.4565 4.078 36.3938C6.0788 34.3311 8.81676 33.1473 11.6901 33.1025H17.0201" stroke="#E534BA" stroke-width="2.00497" stroke-linecap="round"/>
<path d="M31.0201 44.1025C35.9906 44.1025 40.0201 40.0731 40.0201 35.1025C40.0201 30.132 35.9906 26.1025 31.0201 26.1025C26.0495 26.1025 22.0201 30.132 22.0201 35.1025C22.0201 40.0731 26.0495 44.1025 31.0201 44.1025Z" stroke="#F95DF0" stroke-width="2.00497" stroke-linecap="round" stroke-linejoin="round"/>
<path d="M31.0201 30.1025V40.1725" stroke="#F95DF0" stroke-width="2.00497" stroke-linecap="round" stroke-linejoin="round"/>
<path d="M26.0201 35.1025H36.0201" stroke="#F95DF0" stroke-width="2.00497" stroke-linecap="round" stroke-linejoin="round"/>
<path d="M12.0201 14.1025C12.0201 12.246 12.7576 10.4655 14.0703 9.15279C15.3831 7.84004 17.1636 7.10254 19.0201 7.10254" stroke="#E534BA" stroke-width="2.00497" stroke-linecap="round"/>
</g>
</g>
<defs>
<clipPath id="clip0_2_1988">
<rect width="41" height="45" fill="white" transform="translate(0.0200806 0.102539)"/>
</clipPath>
<clipPath id="clip1_2_1988">
<rect width="41" height="45" fill="white" transform="translate(0.0200806 0.102539)"/>
</clipPath>
</defs>
</svg>
