<svg width="58" height="45" viewBox="0 0 58 45" fill="none" xmlns="http://www.w3.org/2000/svg">
<g clip-path="url(#clip0_2_2058)">
<g clip-path="url(#clip1_2_2058)">
<g clip-path="url(#clip2_2_2058)">
<path d="M12.9772 33.2076V40.8942C12.9746 41.2967 13.0514 41.6957 13.2033 42.0685C13.3552 42.4412 13.5792 42.7803 13.8624 43.0663C14.1456 43.3524 14.4825 43.5797 14.8538 43.7352C15.225 43.8908 15.6233 43.9715 16.0258 43.9728H41.9643C42.7685 43.957 43.5342 43.6251 44.0954 43.0489C44.6567 42.4727 44.9684 41.6985 44.963 40.8942V23.9817" stroke="#E534BA" stroke-width="2.00497" stroke-linecap="round"/>
<path d="M12.9772 20.9831V4.07057C12.9746 3.66807 13.0514 3.269 13.2033 2.89625C13.3552 2.5235 13.5792 2.1844 13.8624 1.89839C14.1456 1.61238 14.4825 1.38509 14.8538 1.22954C15.225 1.07399 15.6233 0.99325 16.0258 0.991943H41.9643C42.7685 1.0077 43.5342 1.33963 44.0954 1.91585C44.6567 2.49208 44.9684 3.2662 44.963 4.07057V11.7572" stroke="#E534BA" stroke-width="2.00497" stroke-linecap="round"/>
<path d="M18.9745 8.98828H38.9656" stroke="#E534BA" stroke-width="2.00497" stroke-linecap="round"/>
<path d="M32.9683 17.9844H53.959" stroke="#F95DF0" stroke-width="2.00497" stroke-linecap="round"/>
<path d="M4.98076 26.9805H24.9719" stroke="#F95DF0" stroke-width="2.00497" stroke-linecap="round"/>
<path d="M18.9745 35.9763H38.9656" stroke="#E534BA" stroke-width="2.00497" stroke-linecap="round"/>
<path d="M6.97986 21.9827L1.98209 26.9804L6.97986 31.9782" stroke="#F95DF0" stroke-width="2.00497" stroke-linecap="round"/>
<path d="M50.9603 11.9871L55.9581 17.9844L50.9603 23.9817" stroke="#F95DF0" stroke-width="2.00497" stroke-linecap="round"/>
<path d="M18.9745 17.9844H24.9719" stroke="#E534BA" stroke-width="2.00497" stroke-linecap="round"/>
<path d="M32.9683 26.9805H38.9656" stroke="#E534BA" stroke-width="2.00497" stroke-linecap="round"/>
</g>
</g>
</g>
<defs>
<clipPath id="clip0_2_2058">
<rect width="56.72" height="44.98" fill="white" transform="translate(0.560104 -0.00756836)"/>
</clipPath>
<clipPath id="clip1_2_2058">
<rect width="56.72" height="44.98" fill="white" transform="translate(0.560104 -0.00756836)"/>
</clipPath>
<clipPath id="clip2_2_2058">
<rect width="56.6948" height="44.98" fill="white" transform="translate(0.572708 -0.00756836)"/>
</clipPath>
</defs>
</svg>
