<svg width="41" height="41" viewBox="0 0 41 41" fill="none" xmlns="http://www.w3.org/2000/svg">
<g clip-path="url(#clip0_2_1895)">
<path d="M21.8556 17.5981V16.0165C21.8556 15.3053 22.0314 14.9622 23.136 14.9622H24.4916V12.3262H22.2071C19.3703 12.3262 18.4665 13.5898 18.4665 15.8241V17.5981H16.5334V20.2927H18.4665V28.2509H21.8556V20.2927H24.2071L24.5251 17.5981H21.8556Z" fill="#A3ABB8"/>
<path d="M20.5251 0.292725C9.47906 0.292725 0.525085 9.2467 0.525085 20.2927C0.525085 31.3387 9.47906 40.2927 20.5251 40.2927C31.5711 40.2927 40.5251 31.3387 40.5251 20.2927C40.5251 9.2467 31.5711 0.292725 20.5251 0.292725ZM33.7803 33.548C30.2648 37.0635 25.4968 39.0385 20.5251 39.0385C15.5534 39.0385 10.7854 37.0635 7.26986 33.548C3.75435 30.0325 1.77936 25.2644 1.77936 20.2927C1.77936 15.321 3.75435 10.553 7.26986 7.0375C10.7854 3.52199 15.5534 1.547 20.5251 1.547C25.4968 1.547 30.2648 3.52199 33.7803 7.0375C37.2958 10.553 39.2708 15.321 39.2708 20.2927C39.2708 25.2644 37.2958 30.0325 33.7803 33.548Z" fill="#A3ABB8"/>
</g>
<defs>
<clipPath id="clip0_2_1895">
<rect width="40" height="40" fill="white" transform="translate(0.525085 0.292725)"/>
</clipPath>
</defs>
</svg>
