<svg width="14" height="14" viewBox="0 0 14 14" fill="none" xmlns="http://www.w3.org/2000/svg">
<g clip-path="url(#clip0_2_752)">
<path fill-rule="evenodd" clip-rule="evenodd" d="M7.53404 0.497803C8.8392 0.497803 10.115 0.884826 11.2002 1.60993C12.2854 2.33504 13.1312 3.36566 13.6307 4.57147C14.1302 5.77727 14.2609 7.10411 14.0062 8.38418C13.7516 9.66426 13.1231 10.8401 12.2002 11.763C11.2773 12.6859 10.1015 13.3144 8.82144 13.569C7.54136 13.8236 6.21453 13.6929 5.00872 13.1935C3.80291 12.694 2.77229 11.8482 2.04719 10.763C1.32208 9.67779 0.935059 8.40194 0.935059 7.09679C0.935059 5.34663 1.63031 3.66815 2.86786 2.4306C4.10541 1.19305 5.78388 0.497803 7.53404 0.497803ZM3.13472 6.3929C3.29919 6.23168 3.52032 6.14138 3.75063 6.14138C3.98093 6.14138 4.20206 6.23168 4.36653 6.3929L5.99428 8.02065L11.0315 4.03926C11.6914 3.51134 12.3293 4.21523 11.7354 4.76515L6.63218 9.89036C6.46149 10.048 6.23765 10.1356 6.00528 10.1356C5.7729 10.1356 5.54906 10.048 5.37837 9.89036L3.17871 7.6907C3.08583 7.61136 3.01049 7.51355 2.95748 7.4035C2.90447 7.29345 2.87496 7.17357 2.87082 7.05149C2.86668 6.92941 2.88801 6.8078 2.93345 6.69441C2.97888 6.58103 3.04743 6.47834 3.13472 6.3929Z" fill="white"/>
</g>
<defs>
<clipPath id="clip0_2_752">
<rect width="13" height="13" fill="white" transform="translate(0.935059 0.497803)"/>
</clipPath>
</defs>
</svg>
