<svg width="41" height="44" viewBox="0 0 41 44" fill="none" xmlns="http://www.w3.org/2000/svg">
<g clip-path="url(#clip0_2_1907)">
<g clip-path="url(#clip1_2_1907)">
<g clip-path="url(#clip2_2_1907)">
<path d="M20.5251 0.292725C9.47906 0.292725 0.525085 9.2467 0.525085 20.2927C0.525085 31.3387 9.47906 40.2927 20.5251 40.2927C31.5711 40.2927 40.5251 31.3387 40.5251 20.2927C40.5251 9.2467 31.5711 0.292725 20.5251 0.292725ZM33.7803 33.548C30.2648 37.0635 25.4968 39.0384 20.5251 39.0384C15.5534 39.0384 10.7854 37.0635 7.26986 33.548C3.75435 30.0324 1.77936 25.2644 1.77936 20.2927C1.77936 15.321 3.75435 10.553 7.26986 7.03749C10.7854 3.52199 15.5534 1.547 20.5251 1.547C25.4968 1.547 30.2648 3.52199 33.7803 7.03749C37.2958 10.553 39.2708 15.321 39.2708 20.2927C39.2708 25.2644 37.2958 30.0324 33.7803 33.548Z" fill="#A3ABB8"/>
<path d="M23.8305 11.4893H17.228C15.768 11.4904 14.3681 12.0708 13.3357 13.1032C12.3033 14.1356 11.7228 15.5355 11.7217 16.9955V23.598C11.7228 25.0581 12.3033 26.458 13.3357 27.4903C14.3681 28.5227 15.768 29.1032 17.228 29.1043H23.8305C25.2905 29.1032 26.6904 28.5227 27.7228 27.4903C28.7552 26.458 29.3357 25.0581 29.3368 23.598V16.9955C29.3369 16.2724 29.1946 15.5563 28.9179 14.8882C28.6412 14.2201 28.2356 13.6131 27.7243 13.1018C27.213 12.5904 26.6059 12.1849 25.9378 11.9082C25.2697 11.6315 24.5537 11.4891 23.8305 11.4893ZM27.6799 23.598C27.6784 24.6185 27.2723 25.5967 26.5507 26.3183C25.8292 27.0398 24.851 27.4459 23.8305 27.4474H17.228C16.2076 27.4459 15.2294 27.0398 14.5078 26.3183C13.7862 25.5967 13.3802 24.6185 13.3786 23.598V16.9955C13.3802 15.9751 13.7862 14.9969 14.5078 14.2753C15.2294 13.5538 16.2076 13.1477 17.228 13.1462H23.8305C24.851 13.1477 25.8292 13.5538 26.5507 14.2753C27.2723 14.9969 27.6784 15.9751 27.6799 16.9955V23.598Z" fill="#A3ABB8"/>
<path d="M20.5251 15.8909C19.6545 15.8909 18.8035 16.149 18.0797 16.6327C17.3558 17.1163 16.7916 17.8038 16.4585 18.6081C16.1253 19.4124 16.0382 20.2974 16.208 21.1513C16.3778 22.0051 16.7971 22.7894 17.4126 23.405C18.0282 24.0206 18.8125 24.4398 19.6664 24.6096C20.5202 24.7795 21.4052 24.6923 22.2095 24.3592C23.0138 24.026 23.7013 23.4618 24.1849 22.738C24.6686 22.0141 24.9268 21.1631 24.9268 20.2925C24.9268 19.1251 24.463 18.0056 23.6375 17.1801C22.8121 16.3546 21.6925 15.8909 20.5251 15.8909ZM20.5251 23.0457C19.9806 23.0457 19.4483 22.8842 18.9955 22.5817C18.5428 22.2792 18.1899 21.8492 17.9815 21.3461C17.7731 20.8431 17.7186 20.2895 17.8249 19.7554C17.9311 19.2214 18.1933 18.7308 18.5783 18.3458C18.9634 17.9607 19.4539 17.6985 19.988 17.5923C20.522 17.4861 21.0756 17.5406 21.5787 17.749C22.0817 17.9574 22.5117 18.3102 22.8142 18.763C23.1168 19.2157 23.2782 19.748 23.2782 20.2925C23.276 21.022 22.9852 21.721 22.4694 22.2369C21.9536 22.7527 21.2546 23.0435 20.5251 23.0457Z" fill="#A3ABB8"/>
<path d="M25.2615 16.142C25.585 16.142 25.8473 15.8797 25.8473 15.5562C25.8473 15.2327 25.585 14.9705 25.2615 14.9705C24.938 14.9705 24.6757 15.2327 24.6757 15.5562C24.6757 15.8797 24.938 16.142 25.2615 16.142Z" fill="#A3ABB8"/>
</g>
</g>
</g>
<defs>
<clipPath id="clip0_2_1907">
<rect width="40" height="40" fill="white" transform="translate(0.525085 0.292725)"/>
</clipPath>
<clipPath id="clip1_2_1907">
<rect width="40" height="40" fill="white" transform="translate(0.525085 0.292725)"/>
</clipPath>
<clipPath id="clip2_2_1907">
<rect width="40" height="40" fill="white" transform="translate(0.525085 0.292725)"/>
</clipPath>
</defs>
</svg>
