<svg width="41" height="41" viewBox="0 0 41 41" fill="none" xmlns="http://www.w3.org/2000/svg">
<g clip-path="url(#clip0_2_1918)">
<g clip-path="url(#clip1_2_1918)">
<g clip-path="url(#clip2_2_1918)">
<path d="M27.3786 27.0374V21.824C27.3786 19.1294 25.9142 17.8826 24.0229 17.8826C22.4916 17.8826 21.8054 18.7445 21.3953 19.3386V18.1169H18.5167V27.0374H21.3953V21.9495C21.3878 21.7071 21.4276 21.4654 21.5125 21.2382C21.7217 20.711 22.2238 20.1755 23.0188 20.1755C24.0648 20.1755 24.5083 20.9788 24.5083 22.1504V27.029H27.3786V27.0374Z" fill="#A3ABB8"/>
<path d="M15.479 13.6316C14.5334 13.6316 13.9225 14.2927 13.9225 15.1713C13.9225 16.0333 14.5167 16.7111 15.4456 16.7111H15.4707C16.433 16.7111 17.0271 16.0333 17.0271 15.1713C17.002 14.2843 16.4246 13.6316 15.479 13.6316Z" fill="#A3ABB8"/>
<path d="M16.8179 18.1169H13.9393V27.0374H16.8179V18.1169Z" fill="#A3ABB8"/>
<path d="M20.5251 0.292725C9.47906 0.292725 0.525085 9.2467 0.525085 20.2927C0.525085 31.3387 9.47906 40.2927 20.5251 40.2927C31.5711 40.2927 40.5251 31.3387 40.5251 20.2927C40.5251 9.2467 31.5711 0.292725 20.5251 0.292725ZM33.7803 33.548C30.2648 37.0635 25.4968 39.0384 20.5251 39.0384C15.5534 39.0384 10.7854 37.0635 7.26986 33.548C3.75435 30.0324 1.77936 25.2644 1.77936 20.2927C1.77936 15.321 3.75435 10.553 7.26986 7.03749C10.7854 3.52199 15.5534 1.547 20.5251 1.547C25.4968 1.547 30.2648 3.52199 33.7803 7.03749C37.2958 10.553 39.2708 15.321 39.2708 20.2927C39.2708 25.2644 37.2958 30.0324 33.7803 33.548Z" fill="#A3ABB8"/>
</g>
</g>
</g>
<defs>
<clipPath id="clip0_2_1918">
<rect width="40" height="40" fill="white" transform="translate(0.525085 0.292725)"/>
</clipPath>
<clipPath id="clip1_2_1918">
<rect width="40" height="40" fill="white" transform="translate(0.525085 0.292725)"/>
</clipPath>
<clipPath id="clip2_2_1918">
<rect width="40" height="40" fill="white" transform="translate(0.525085 0.292725)"/>
</clipPath>
</defs>
</svg>
