<svg width="46" height="46" viewBox="0 0 46 46" fill="none" xmlns="http://www.w3.org/2000/svg">
<g clip-path="url(#clip0_2_2006)">
<g clip-path="url(#clip1_2_2006)">
<g clip-path="url(#clip2_2_2006)">
<path d="M37.2384 28.4935L41.3294 32.1754C41.9581 32.7419 42.4648 33.4307 42.8185 34.1996C43.1722 34.9685 43.3654 35.8014 43.3865 36.6475C43.4075 37.4936 43.2559 38.3351 42.9409 39.1206C42.6259 39.9062 42.1542 40.6193 41.5544 41.2164C40.9556 41.8144 40.2417 42.2848 39.456 42.5991C38.6702 42.9134 37.8289 43.0651 36.9828 43.0451C36.1368 43.025 35.3036 42.8336 34.5336 42.4823C33.7636 42.1311 33.0729 41.6274 32.5031 41.0016L27.011 34.8652" stroke="#F95DF0" stroke-width="2.04548" stroke-linecap="square"/>
<path d="M21.1099 17.1616L13.7155 9.76719V7.25126L8.30518 1.84098C8.2101 1.74512 8.09698 1.66903 7.97235 1.61711C7.84772 1.56518 7.71405 1.53845 7.57903 1.53845C7.44402 1.53845 7.31034 1.56518 7.18571 1.61711C7.06108 1.66903 6.94797 1.74512 6.85289 1.84098L2.16875 6.52511C2.07289 6.62019 1.9968 6.73331 1.94488 6.85794C1.89296 6.98257 1.86623 7.11624 1.86623 7.25126C1.86623 7.38627 1.89296 7.51995 1.94488 7.64458C1.9968 7.76921 2.07289 7.88233 2.16875 7.9774L7.57903 13.3877H10.095L17.3053 20.598" stroke="#F95DF0" stroke-width="2.04548"/>
<path d="M38.0362 14.5434L30.9793 7.48652L36.8396 1.61601C35.4701 1.28306 34.0659 1.11482 32.6566 1.11487C30.0497 1.33303 27.6043 2.46768 25.7545 4.31748C23.9047 6.16729 22.7701 8.61261 22.5519 11.2195C22.4547 12.6409 22.614 14.0682 23.0224 15.4332L2.46535 33.9959C2.15609 34.2794 1.90638 34.6217 1.73079 35.0027C1.5552 35.3837 1.45723 35.7959 1.44261 36.2152C1.43052 36.6359 1.50509 37.0545 1.66168 37.4451C1.81827 37.8357 2.05354 38.1899 2.35285 38.4857L7.02676 43.1596C7.32256 43.4589 7.67677 43.6942 8.06737 43.8508C8.45796 44.0074 8.8766 44.0819 9.29724 44.0698C9.71653 44.0552 10.1287 43.9573 10.5098 43.7817C10.8908 43.6061 11.2331 43.3564 11.5166 43.0471L30.0793 22.5003C31.4393 22.8979 32.8586 23.0537 34.2725 22.9605C36.8822 22.7493 39.3322 21.6188 41.1863 19.7703C43.0405 17.9217 44.1785 15.4751 44.3976 12.8661C44.4843 11.451 44.3216 10.0317 43.9169 8.6729L38.0362 14.5434Z" stroke="#E534BA" stroke-width="2.04548" stroke-linecap="square"/>
</g>
</g>
</g>
<defs>
<clipPath id="clip0_2_2006">
<rect width="45.02" height="44.98" fill="white" transform="translate(0.41011 0.112549)"/>
</clipPath>
<clipPath id="clip1_2_2006">
<rect width="45.02" height="44.98" fill="white" transform="translate(0.41011 0.112549)"/>
</clipPath>
<clipPath id="clip2_2_2006">
<rect width="45.0005" height="44.98" fill="white" transform="translate(0.419876 0.112549)"/>
</clipPath>
</defs>
</svg>
