<svg width="46" height="46" viewBox="0 0 46 46" fill="none" xmlns="http://www.w3.org/2000/svg">
<g clip-path="url(#clip0_2_2079)">
<g clip-path="url(#clip1_2_2079)">
<g clip-path="url(#clip2_2_2079)">
<path d="M23.3302 29.7058C26.7672 29.7058 29.5536 26.9195 29.5536 23.4824C29.5536 20.0453 26.7672 17.259 23.3302 17.259C19.8931 17.259 17.1068 20.0453 17.1068 23.4824C17.1068 26.9195 19.8931 29.7058 23.3302 29.7058Z" stroke="#F95DF0" stroke-width="1.91489" stroke-linecap="round" stroke-linejoin="round"/>
<path d="M19.0216 34.4931C17.5133 33.8807 16.143 32.972 14.9918 31.8208C13.8407 30.6697 12.932 29.2994 12.3195 27.791" stroke="#E534BA" stroke-width="1.91489" stroke-linecap="round" stroke-linejoin="round"/>
<path d="M34.3408 27.791C33.7312 29.3011 32.8235 30.6728 31.672 31.8243C30.5205 32.9758 29.1487 33.8835 27.6387 34.4931" stroke="#E534BA" stroke-width="1.91489" stroke-linecap="round" stroke-linejoin="round"/>
<path d="M27.6387 12.4719C29.1471 13.0844 30.5173 13.9931 31.6685 15.1442C32.8196 16.2954 33.7283 17.6657 34.3408 19.1741" stroke="#E534BA" stroke-width="1.91489" stroke-linecap="round" stroke-linejoin="round"/>
<path d="M12.3195 19.1741C12.9263 17.6623 13.8329 16.2891 14.9848 15.1372C16.1367 13.9853 17.5099 13.0787 19.0216 12.4719" stroke="#E534BA" stroke-width="1.91489" stroke-linecap="round" stroke-linejoin="round"/>
<path d="M19.0216 41.1953C15.796 40.3574 12.8527 38.6731 10.4961 36.3165C8.13952 33.96 6.45522 31.0167 5.61737 27.791" stroke="#E534BA" stroke-width="1.91489" stroke-linecap="round" stroke-linejoin="round"/>
<path d="M41.0429 27.791C40.2051 31.0167 38.5208 33.96 36.1642 36.3165C33.8076 38.6731 30.8643 40.3574 27.6387 41.1953" stroke="#E534BA" stroke-width="1.91489" stroke-linecap="round" stroke-linejoin="round"/>
<path d="M27.6387 5.76978C30.8639 6.60855 33.8067 8.29315 36.1631 10.6496C38.5196 13.006 40.2042 15.9488 41.0429 19.174" stroke="#E534BA" stroke-width="1.91489" stroke-linecap="round" stroke-linejoin="round"/>
<path d="M5.61737 19.174C6.32351 16.0396 7.8472 13.1481 10.0335 10.7937C12.2197 8.43925 14.9906 6.70584 18.0642 5.76978" stroke="#E534BA" stroke-width="1.91489" stroke-linecap="round" stroke-linejoin="round"/>
<path d="M22.8514 1.93994V13.4293" stroke="#F95DF0" stroke-width="1.91489" stroke-linecap="round" stroke-linejoin="round"/>
<path d="M22.8514 33.5356V45.025" stroke="#F95DF0" stroke-width="1.91489" stroke-linecap="round" stroke-linejoin="round"/>
<path d="M1.7876 23.0037H13.277" stroke="#F95DF0" stroke-width="1.91489" stroke-linecap="round" stroke-linejoin="round"/>
<path d="M33.3833 23.0037H44.8727" stroke="#F95DF0" stroke-width="1.91489" stroke-linecap="round" stroke-linejoin="round"/>
</g>
</g>
</g>
<defs>
<clipPath id="clip0_2_2079">
<rect width="45" height="45" fill="white" transform="translate(0.830139 0.982422)"/>
</clipPath>
<clipPath id="clip1_2_2079">
<rect width="45" height="45" fill="white" transform="translate(0.830139 0.982422)"/>
</clipPath>
<clipPath id="clip2_2_2079">
<rect width="45" height="45" fill="white" transform="translate(0.830139 0.982422)"/>
</clipPath>
</defs>
</svg>
