<svg width="46" height="46" viewBox="0 0 46 46" fill="none" xmlns="http://www.w3.org/2000/svg">
<g clip-path="url(#clip0_2_2025)">
<g clip-path="url(#clip1_2_2025)">
<path d="M10.473 1.17395H4.04444C2.86097 1.17395 1.90158 2.13334 1.90158 3.31681V41.8882C1.90158 43.0717 2.86097 44.0311 4.04444 44.0311H10.473C11.6565 44.0311 12.6159 43.0717 12.6159 41.8882V3.31681C12.6159 2.13334 11.6565 1.17395 10.473 1.17395Z" stroke="#E534BA" stroke-width="2.14286" stroke-linecap="square"/>
<path d="M42.6159 17.2454H36.1873C35.0038 17.2454 34.0444 18.2048 34.0444 19.3882V41.8882C34.0444 43.0717 35.0038 44.0311 36.1873 44.0311H42.6159C43.7993 44.0311 44.7587 43.0717 44.7587 41.8882V19.3882C44.7587 18.2048 43.7993 17.2454 42.6159 17.2454Z" stroke="#F95DF0" stroke-width="2.14286" stroke-linecap="square"/>
<path d="M42.6159 1.17395H20.1159C18.9324 1.17395 17.973 2.13334 17.973 3.31681V9.74538C17.973 10.9288 18.9324 11.8882 20.1159 11.8882H42.6159C43.7993 11.8882 44.7587 10.9288 44.7587 9.74538V3.31681C44.7587 2.13334 43.7993 1.17395 42.6159 1.17395Z" stroke="#E534BA" stroke-width="2.14286" stroke-linecap="square"/>
<path d="M26.5445 33.3168H20.1159C18.9324 33.3168 17.973 34.2762 17.973 35.4596V41.8882C17.973 43.0717 18.9324 44.0311 20.1159 44.0311H26.5445C27.7279 44.0311 28.6873 43.0717 28.6873 41.8882V35.4596C28.6873 34.2762 27.7279 33.3168 26.5445 33.3168Z" stroke="#E534BA" stroke-width="2.14286" stroke-linecap="square"/>
<path d="M26.5445 17.2454H20.1159C18.9324 17.2454 17.973 18.2048 17.973 19.3882V25.8168C17.973 27.0003 18.9324 27.9596 20.1159 27.9596H26.5445C27.7279 27.9596 28.6873 27.0003 28.6873 25.8168V19.3882C28.6873 18.2048 27.7279 17.2454 26.5445 17.2454Z" stroke="#F95DF0" stroke-width="2.14286" stroke-linecap="square"/>
</g>
</g>
<defs>
<clipPath id="clip0_2_2025">
<rect width="45" height="45" fill="white" transform="translate(0.830139 0.102539)"/>
</clipPath>
<clipPath id="clip1_2_2025">
<rect width="45" height="45" fill="white" transform="translate(0.830139 0.102539)"/>
</clipPath>
</defs>
</svg>
