<svg width="41" height="44" viewBox="0 0 41 44" fill="none" xmlns="http://www.w3.org/2000/svg">
<g clip-path="url(#clip0_2_1900)">
<g clip-path="url(#clip1_2_1900)">
<g clip-path="url(#clip2_2_1900)">
<path d="M28.4498 15.3721C27.8571 15.6355 27.2279 15.8076 26.5837 15.8826C27.2631 15.4762 27.7716 14.8368 28.0146 14.0834C27.3774 14.4654 26.6776 14.7317 25.9477 14.87C25.5012 14.3936 24.9218 14.0625 24.2847 13.9195C23.6476 13.7766 22.9823 13.8285 22.3751 14.0685C21.7679 14.3085 21.2469 14.7255 20.8797 15.2654C20.5125 15.8053 20.316 16.443 20.3159 17.096C20.3143 17.3466 20.3424 17.5966 20.3996 17.8407C19.1064 17.7769 17.8411 17.4413 16.6862 16.8559C15.5313 16.2706 14.5127 15.4485 13.6966 14.4432C13.2787 15.1587 13.1499 16.0068 13.3366 16.8141C13.5232 17.6214 14.0113 18.3269 14.7008 18.7863C14.1842 18.7695 13.6791 18.6289 13.228 18.3763V18.4181C13.2291 19.1691 13.4895 19.8966 13.9653 20.4776C14.4411 21.0585 15.1029 21.4573 15.8389 21.6064C15.5609 21.6834 15.2738 21.7228 14.9853 21.7236C14.7802 21.7252 14.5755 21.7056 14.3745 21.665C14.5831 22.3106 14.9878 22.8752 15.5322 23.2802C16.0766 23.6851 16.7337 23.9103 17.4121 23.9244C16.2583 24.8268 14.8351 25.3159 13.3703 25.3135C13.1109 25.3135 12.8515 25.2968 12.592 25.2717C14.0797 26.2279 15.811 26.7362 17.5795 26.7361C23.5628 26.7361 26.8347 21.7822 26.8347 17.4809C26.8347 17.3386 26.8347 17.1964 26.8264 17.0625C27.4635 16.5998 28.0132 16.0274 28.4498 15.3721Z" fill="#A3ABB8"/>
<path d="M20.5251 0.292725C9.47906 0.292725 0.525085 9.2467 0.525085 20.2927C0.525085 31.3387 9.47906 40.2927 20.5251 40.2927C31.5711 40.2927 40.5251 31.3387 40.5251 20.2927C40.5251 9.2467 31.5711 0.292725 20.5251 0.292725ZM33.7803 33.548C30.2648 37.0635 25.4968 39.0384 20.5251 39.0384C15.5534 39.0384 10.7854 37.0635 7.26986 33.548C3.75435 30.0324 1.77936 25.2644 1.77936 20.2927C1.77936 15.321 3.75435 10.553 7.26986 7.03749C10.7854 3.52199 15.5534 1.547 20.5251 1.547C25.4968 1.547 30.2648 3.52199 33.7803 7.03749C37.2958 10.553 39.2708 15.321 39.2708 20.2927C39.2708 25.2644 37.2958 30.0324 33.7803 33.548Z" fill="#A3ABB8"/>
</g>
</g>
</g>
<defs>
<clipPath id="clip0_2_1900">
<rect width="40" height="40" fill="white" transform="translate(0.525085 0.292725)"/>
</clipPath>
<clipPath id="clip1_2_1900">
<rect width="40" height="40" fill="white" transform="translate(0.525085 0.292725)"/>
</clipPath>
<clipPath id="clip2_2_1900">
<rect width="40" height="40" fill="white" transform="translate(0.525085 0.292725)"/>
</clipPath>
</defs>
</svg>
