<svg width="37" height="45" viewBox="0 0 37 45" fill="none" xmlns="http://www.w3.org/2000/svg">
<g clip-path="url(#clip0_2_2042)">
<g clip-path="url(#clip1_2_2042)">
<path d="M26.5015 43.9265C24.7441 42.1482 24.2629 34.8677 28.7609 34.8677L31.8991 35.1816C32.0896 35.213 32.2839 35.213 32.4744 35.1816C32.9618 35.1235 33.4152 34.9023 33.761 34.5539C34.3364 33.9681 33.8761 24.6374 34.1376 24.4805L35.1837 23.8529C35.3364 23.7609 35.4665 23.6359 35.5645 23.487C35.6625 23.3381 35.7259 23.1691 35.75 22.9925C35.7741 22.8158 35.7582 22.6361 35.7037 22.4663C35.6491 22.2966 35.5572 22.1413 35.4347 22.0118L32.9974 19.4699C32.0492 18.2185 31.5649 16.6767 31.6271 15.1079C31.5821 11.6203 30.3078 8.26052 28.0287 5.62028C26.6636 4.14913 25.0047 2.9811 23.1595 2.19184C21.3143 1.40258 19.3239 1.00968 17.3172 1.0386C13.8674 1.01011 10.5032 2.11261 7.73946 4.17742C4.97568 6.24222 2.96447 9.15562 2.01351 12.4719C-1.51166 24.0516 8.45716 30.4639 8.47808 30.4848C13.8757 34.125 10.8735 43.0374 10.1099 43.9056" stroke="#E534BA" stroke-width="2.09209" stroke-linecap="round" stroke-linejoin="round"/>
<path d="M12.7669 25.0976C14.5 25.0976 15.905 23.6926 15.905 21.9594C15.905 20.2263 14.5 18.8213 12.7669 18.8213C11.0337 18.8213 9.62872 20.2263 9.62872 21.9594C9.62872 23.6926 11.0337 25.0976 12.7669 25.0976Z" stroke="#F95DF0" stroke-width="2.09209" stroke-linecap="round" stroke-linejoin="round"/>
<path d="M22.1813 15.6833C23.9144 15.6833 25.3194 14.2783 25.3194 12.5451C25.3194 10.812 23.9144 9.40698 22.1813 9.40698C20.4481 9.40698 19.0432 10.812 19.0432 12.5451C19.0432 14.2783 20.4481 15.6833 22.1813 15.6833Z" stroke="#F95DF0" stroke-width="2.09209" stroke-linecap="round" stroke-linejoin="round"/>
<path d="M22.1813 15.6833V21.9596H15.905" stroke="#F95DF0" stroke-width="2.09209" stroke-linecap="round" stroke-linejoin="round"/>
<path d="M22.1813 21.9595V27.9533L17.9971 31.9492V43.9264" stroke="#F95DF0" stroke-width="2.09209" stroke-linecap="round" stroke-linejoin="round"/>
</g>
</g>
<defs>
<clipPath id="clip0_2_2042">
<rect width="36.63" height="44.98" fill="white" transform="translate(0.205078 -0.00756836)"/>
</clipPath>
<clipPath id="clip1_2_2042">
<rect width="36.6116" height="44.98" fill="white" transform="translate(0.214294 -0.00756836)"/>
</clipPath>
</defs>
</svg>
